<svg width="60" height="60" viewBox="0 0 60 60" fill="none" xmlns="http://www.w3.org/2000/svg">
<g clip-path="url(#clip0_265_36)">
<path d="M47.3797 1.59374C47.2611 1.34195 47.094 1.116 46.888 0.928794C46.682 0.741585 46.4412 0.596785 46.1793 0.502663C45.9173 0.40854 45.6394 0.366939 45.3614 0.380234C45.0833 0.39353 44.8106 0.461462 44.5589 0.580151C42.8501 1.38578 41.3326 2.51222 40.0147 3.75047C42.5659 2.73158 45.1239 2.11325 47.5104 1.95615C47.4779 1.83164 47.4342 1.71034 47.3797 1.59374ZM37.7223 14.0525C37.7387 14.0165 38.5965 12.175 40.1347 10.0434C39.6665 10.2828 39.2047 10.5346 38.7499 10.7984C36.346 12.1946 34.2497 13.8631 32.6048 15.6076L35.9971 15.2817C36.3671 15.2456 36.7211 15.1131 37.0238 14.8974C37.3266 14.6817 37.5674 14.3904 37.7223 14.0525ZM9.73438 56.6898C9.73438 58.4992 11.2012 59.965 13.0101 59.965C14.8185 59.965 16.2854 58.4992 16.2854 56.6898V34.9866L9.73438 38.7911V56.6898ZM13.278 29.3093C12.2519 28.5252 11.0494 27.6665 9.73438 26.792V31.3672L13.278 29.3093ZM23.6663 30.6999L22.1248 31.5953C22.1497 31.7861 22.1611 31.9734 22.1611 32.1588C22.1611 33.6636 20.9371 34.8875 19.4324 34.8875C19.1413 34.8867 18.8524 34.8388 18.5767 34.7455L23.3386 57.3979C23.7108 59.1687 25.4479 60.3015 27.2181 59.9292C28.9878 59.557 30.1217 57.8207 29.7497 56.05L24.3138 30.1942C24.1213 30.3907 23.9036 30.5606 23.6663 30.6999ZM20.7419 5.31033C20.9446 5.06633 21.1988 4.8702 21.4863 4.736C21.7737 4.6018 22.0873 4.53286 22.4045 4.53411C22.8246 4.53239 23.2359 4.65376 23.5878 4.88323C23.9396 5.11271 24.2165 5.44023 24.3843 5.82534L25.2479 5.74851C25.462 4.87268 26.212 4.1868 27.1588 4.10229C27.5513 4.06683 27.946 4.1389 28.3006 4.31078C27.7035 2.24624 26.0085 0.575647 23.7562 0.119717C20.5294 -0.53358 17.3843 1.55241 16.731 4.77916C16.6152 5.34999 16.5838 5.93471 16.6377 6.51466L20.2997 6.18881C20.3775 5.86578 20.5286 5.56512 20.7419 5.31033ZM28.0548 8.30606C27.8905 8.36223 27.7196 8.40117 27.5427 8.4168C27.4784 8.42253 27.4138 8.42545 27.3493 8.42554C26.8076 8.42791 26.285 8.22609 25.8854 7.86031C25.4859 7.49453 25.2389 6.99165 25.1936 6.45188C25.1915 6.42936 25.1923 6.40763 25.191 6.38538L24.5512 6.44234C24.5538 6.46433 24.5581 6.48579 24.5602 6.50804C24.6662 7.69727 23.7845 8.75113 22.595 8.8571C22.5307 8.86283 22.4662 8.86575 22.4016 8.86584C21.8599 8.8682 21.3369 8.6663 20.9373 8.30041C20.5378 7.93452 20.2908 7.43151 20.2457 6.89165C20.2438 6.86966 20.2443 6.84767 20.243 6.82542L16.7283 7.13855C17.1882 9.41847 18.968 11.3137 21.3904 11.8044C24.211 12.3753 26.9686 10.853 28.0548 8.30606Z" fill="url(#paint0_linear_265_36)"/>
<path d="M27.4889 7.80984C27.6942 7.79398 27.8943 7.73754 28.0776 7.64379C28.261 7.55004 28.4239 7.42084 28.5569 7.26368C28.69 7.10652 28.7905 6.92452 28.8527 6.72823C28.9149 6.53194 28.9375 6.32525 28.9193 6.12015C28.9011 5.91505 28.8423 5.71561 28.7464 5.53338C28.6505 5.35114 28.5195 5.18975 28.3608 5.05854C28.2021 4.92733 28.0189 4.82892 27.8219 4.76899C27.6249 4.70907 27.418 4.68884 27.2131 4.70946C26.8055 4.7505 26.4305 4.95057 26.1695 5.26629C25.9085 5.582 25.7824 5.98791 25.8187 6.39595C25.855 6.804 26.0507 7.18128 26.3634 7.44597C26.676 7.71065 27.0805 7.8414 27.4889 7.80984ZM22.2654 5.1495C22.0602 5.1655 21.8602 5.22205 21.6769 5.31587C21.4937 5.4097 21.3309 5.53894 21.1979 5.69612C21.065 5.8533 20.9645 6.03528 20.9023 6.23154C20.8402 6.42781 20.8176 6.63445 20.8359 6.8395C20.8541 7.04456 20.9129 7.24396 21.0087 7.42616C21.1045 7.60836 21.2356 7.76974 21.3942 7.90095C21.5528 8.03217 21.7359 8.13062 21.9328 8.19061C22.1298 8.25059 22.3366 8.27092 22.5415 8.25041C22.9493 8.20957 23.3246 8.00953 23.5859 7.69369C23.8471 7.37785 23.9733 6.97172 23.937 6.56344C23.9006 6.15516 23.7047 5.7777 23.3918 5.51298C23.0788 5.24826 22.6741 5.11765 22.2654 5.1495ZM16.7233 32.4865C16.4496 31.9763 15.4411 31.0154 13.9543 29.8357L2.42757 36.5303C1.89585 36.8391 1.50857 37.3465 1.35093 37.9408C1.19329 38.5352 1.2782 39.1678 1.58697 39.6995L1.68393 39.8664C1.83682 40.1298 2.04009 40.3604 2.28212 40.5452C2.52416 40.73 2.80023 40.8652 3.09456 40.9433C3.38889 41.0214 3.69572 41.0407 3.99751 41.0001C4.29931 40.9596 4.59016 40.86 4.85345 40.707L17.1127 33.5873C16.9041 33.2532 16.7711 32.8775 16.7233 32.4865ZM56.904 17.5603C58.9229 14.2204 59.2792 11.0803 57.9075 8.71799L56.4602 6.22641C55.0884 3.86463 52.1783 2.61685 48.2829 2.71593C44.5252 2.81077 40.2478 4.14545 36.2385 6.47384C32.2291 8.8025 28.9505 11.8565 27.0059 15.0732C24.9867 18.4133 24.6307 21.5535 26.0024 23.9158C26.0241 23.9528 26.049 23.987 26.0713 24.0233L23.0554 25.775C22.7107 25.5993 22.3275 25.5128 21.9407 25.5234C21.554 25.534 21.1761 25.6414 20.8415 25.8356L18.9658 26.925C20.7289 28.5172 21.5774 29.7295 21.9353 30.7865L23.2674 30.0129C23.602 29.8186 23.8826 29.5435 24.0835 29.2128C24.2843 28.8821 24.3992 28.5063 24.4174 28.1198L27.4301 26.3703C27.4372 26.3824 27.4425 26.3949 27.4494 26.4073C28.7714 28.6828 31.5141 29.9229 35.2013 29.9229C35.3417 29.9229 35.4842 29.9213 35.6273 29.9176C39.3847 29.8227 43.6624 28.488 47.6714 26.1596C51.6808 23.831 54.9594 20.777 56.904 17.5603ZM45.5592 22.5223C38.5957 26.5666 31.2394 27.244 28.0723 24.3796C27.1535 20.2092 31.3877 14.155 38.351 10.111C42.471 7.71792 46.7299 6.50272 50.1771 6.50272C52.5518 6.50272 54.5385 7.08263 55.8318 8.24882C56.2085 9.9875 55.6983 12.1093 54.3236 14.3836C52.4922 17.4133 49.3796 20.3036 45.5592 22.5223Z" fill="url(#paint1_linear_265_36)"/>
<path d="M44.8996 20.3221C39.0146 24.111 32.5537 24.6467 30.1053 21.6454C30.1747 21.7858 30.2492 21.9236 30.3347 22.056C32.5368 25.4762 39.2854 25.0534 45.408 21.1113C51.5306 17.1693 54.7088 11.2009 52.5068 7.78074C52.4398 7.67636 52.3638 7.57939 52.2875 7.4827C52.2668 7.45621 52.2488 7.42733 52.2276 7.40137C52.24 7.4268 52.2498 7.45303 52.262 7.47846C53.8984 10.9556 50.7422 16.56 44.8999 20.3219L44.8996 20.3221ZM6.80119 24.2244C11.894 27.2546 16.7551 31.0003 17.3212 32.3204C17.3644 32.8659 17.6169 33.3735 18.0258 33.7371C18.4347 34.1007 18.9684 34.2921 19.5151 34.2712C20.0619 34.2503 20.5794 34.0188 20.9594 33.6251C21.3394 33.2314 21.5524 32.706 21.5539 32.1588C21.5539 30.6575 20.7475 28.6884 14.8977 24.478C13.2144 23.2665 11.5475 22.1843 10.411 21.4692C11.3581 18.6725 12.2204 16.9767 12.9569 15.9303L13.5005 16.2264C12.834 17.1505 12.0347 18.6717 11.1441 21.2123C12.243 21.9111 13.7408 22.8948 15.2538 23.9833C16.4793 24.8655 17.495 25.6555 18.3372 26.3724L20.4441 25.1485C20.8269 24.9262 21.2526 24.7883 21.6929 24.7438C22.1333 24.6994 22.578 24.7494 22.9975 24.8907L24.6394 23.937L24.7968 23.1881C23.9273 20.7439 24.4505 17.7672 26.3275 14.6623C26.9278 13.6689 27.6524 12.6921 28.4795 11.7458L24.9412 12.086C24.1894 12.3803 23.3894 12.532 22.5821 12.5332C22.1449 12.5332 21.7038 12.4887 21.272 12.4012C20.0542 12.1575 18.9313 11.5712 18.0352 10.7113L15.0026 10.0739C14.8761 10.0477 14.7474 10.0335 14.6182 10.0315C14.6108 10.0307 14.6034 10.0305 14.596 10.0302L14.588 10.0299C14.3135 10.0111 14.0379 10.0462 13.7768 10.1332C12.3092 10.6226 10.7795 11.5055 9.22549 13.897C8.1107 15.6118 6.98373 18.101 5.85807 21.7837C5.71951 22.2374 5.73713 22.7245 5.90811 23.1671C6.07909 23.6096 6.39355 23.9817 6.80119 24.2244Z" fill="url(#paint2_linear_265_36)"/>
</g>
<defs>
<linearGradient id="paint0_linear_265_36" x1="28.6224" y1="0" x2="28.6224" y2="60" gradientUnits="userSpaceOnUse">
<stop stop-color="#2ABEDF"/>
<stop offset="1" stop-color="#8ED925"/>
</linearGradient>
<linearGradient id="paint1_linear_265_36" x1="30.0009" y1="2.71045" x2="30.0009" y2="41.0208" gradientUnits="userSpaceOnUse">
<stop stop-color="#2ABEDF"/>
<stop offset="1" stop-color="#8ED925"/>
</linearGradient>
<linearGradient id="paint2_linear_265_36" x1="29.4854" y1="7.40137" x2="29.4854" y2="34.2727" gradientUnits="userSpaceOnUse">
<stop stop-color="#2ABEDF"/>
<stop offset="1" stop-color="#8ED925"/>
</linearGradient>
<clipPath id="clip0_265_36">
<rect width="60" height="60" fill="white"/>
</clipPath>
</defs>
</svg>
