<svg width="46" height="46" viewBox="0 0 46 46" fill="none" xmlns="http://www.w3.org/2000/svg">
<path d="M16.1274 29.8425C14.9838 30.7368 14.0588 31.88 13.4229 33.1851C12.7869 34.4903 12.4566 35.9231 12.457 37.375V40.25H6.70703C5.1162 40.25 3.83203 38.9658 3.83203 37.375V35.4583C3.83203 31.7496 6.83161 28.75 10.5404 28.75H12.457C13.8179 28.75 15.0733 29.1525 16.1274 29.8425Z" fill="url(#paint0_linear_263_3)"/>
<path d="M34.5 28.75C36.8817 28.75 38.8125 26.8192 38.8125 24.4375C38.8125 22.0558 36.8817 20.125 34.5 20.125C32.1183 20.125 30.1875 22.0558 30.1875 24.4375C30.1875 26.8192 32.1183 28.75 34.5 28.75Z" fill="url(#paint1_linear_263_3)"/>
<path d="M11.5 28.75C13.8817 28.75 15.8125 26.8192 15.8125 24.4375C15.8125 22.0558 13.8817 20.125 11.5 20.125C9.11827 20.125 7.1875 22.0558 7.1875 24.4375C7.1875 26.8192 9.11827 28.75 11.5 28.75Z" fill="url(#paint2_linear_263_3)"/>
<path d="M42.1665 35.4583V37.375C42.1665 38.9658 40.8823 40.25 39.2915 40.25H33.5415V37.375C33.5415 34.3179 32.104 31.5962 29.8711 29.8425C30.9253 29.1525 32.1807 28.75 33.5415 28.75H35.4582C39.1669 28.75 42.1665 31.7496 42.1665 35.4583Z" fill="url(#paint3_linear_263_3)"/>
<path d="M22.9974 29.7087C25.9084 29.7087 28.2682 27.3488 28.2682 24.4378C28.2682 21.5268 25.9084 19.167 22.9974 19.167C20.0864 19.167 17.7266 21.5268 17.7266 24.4378C17.7266 27.3488 20.0864 29.7087 22.9974 29.7087Z" fill="url(#paint4_linear_263_3)"/>
<path d="M23.9563 29.7085H22.0397C17.8124 29.7085 14.373 33.148 14.373 37.3752V40.2502C14.373 41.8353 15.6629 43.1252 17.248 43.1252H28.748C30.3331 43.1252 31.623 41.8353 31.623 40.2502V37.3752C31.623 33.148 28.1835 29.7085 23.9563 29.7085ZM36.8938 15.989L34.5814 16.8113C34.4297 16.8652 34.2671 16.8814 34.1077 16.8584C33.9484 16.8353 33.797 16.7738 33.6668 16.6792C33.5366 16.5845 33.4314 16.4596 33.3603 16.3151C33.2892 16.1706 33.2544 16.011 33.2589 15.8501L33.3259 13.3967L31.829 11.4513C31.7309 11.3237 31.6654 11.174 31.6381 11.0154C31.6108 10.8567 31.6225 10.6938 31.6722 10.5407C31.7219 10.3876 31.8081 10.2489 31.9235 10.1365C32.0388 10.0242 32.1797 9.94163 32.3341 9.89594L34.6887 9.20211L36.0764 7.17715C36.1674 7.04433 36.2894 6.93568 36.4318 6.86061C36.5742 6.78554 36.7328 6.7463 36.8938 6.7463C37.0548 6.7463 37.2134 6.78554 37.3558 6.86061C37.4983 6.93568 37.6203 7.04433 37.7113 7.17715L39.0989 9.20211L41.4536 9.89594C42.1215 10.0924 42.3832 10.8993 41.9586 11.4513L40.4617 13.3967L40.5288 15.8501C40.533 16.0109 40.4981 16.1704 40.4269 16.3148C40.3558 16.4591 40.2506 16.584 40.1204 16.6786C39.9902 16.7732 39.839 16.8347 39.6797 16.8578C39.5205 16.881 39.358 16.865 39.2063 16.8113L36.8938 15.989ZM9.10215 15.989L6.78969 16.8113C6.63799 16.8652 6.47543 16.8814 6.31608 16.8584C6.15672 16.8353 6.00538 16.7738 5.87514 16.6792C5.7449 16.5845 5.63969 16.4596 5.56861 16.3151C5.49752 16.1706 5.46272 16.011 5.46719 15.8501L5.53428 13.3967L4.03736 11.4513C3.93928 11.3237 3.87375 11.174 3.84642 11.0154C3.8191 10.8567 3.8308 10.6938 3.88052 10.5407C3.93024 10.3876 4.01648 10.2489 4.13179 10.1365C4.24711 10.0242 4.38803 9.94163 4.5424 9.89594L6.89703 9.20211L8.28469 7.17715C8.3757 7.04433 8.49769 6.93568 8.64013 6.86061C8.78256 6.78554 8.94114 6.7463 9.10215 6.7463C9.26316 6.7463 9.42174 6.78554 9.56418 6.86061C9.70661 6.93568 9.82861 7.04433 9.91961 7.17715L11.3073 9.20211L13.6619 9.89594C14.3299 10.0924 14.5915 10.8993 14.1669 11.4513L12.67 13.3967L12.7371 15.8501C12.7414 16.0109 12.7064 16.1704 12.6353 16.3148C12.5641 16.4591 12.4589 16.584 12.3287 16.6786C12.1986 16.7732 12.0473 16.8347 11.8881 16.8578C11.7288 16.881 11.5663 16.865 11.4146 16.8113L9.10215 15.989ZM22.998 13.8328L20.2562 14.8074C20.0764 14.8713 19.8837 14.8904 19.6948 14.8631C19.5059 14.8358 19.3265 14.7629 19.1721 14.6507C19.0177 14.5385 18.893 14.3904 18.8087 14.2191C18.7244 14.0479 18.6831 13.8587 18.6884 13.6679L18.7679 10.7594L16.9931 8.45269C16.8768 8.30134 16.7991 8.12396 16.7668 7.93587C16.7344 7.74779 16.7483 7.55465 16.8073 7.37314C16.8662 7.19162 16.9685 7.02719 17.1052 6.89403C17.2419 6.76088 17.409 6.663 17.592 6.60886L20.3837 5.78565L22.0291 3.38503C22.137 3.2275 22.2817 3.09863 22.4506 3.0096C22.6195 2.92056 22.8075 2.87402 22.9985 2.87402C23.1894 2.87402 23.3775 2.92056 23.5464 3.0096C23.7153 3.09863 23.8599 3.2275 23.9678 3.38503L25.6133 5.78565L28.4049 6.60886C28.5879 6.663 28.755 6.76088 28.8917 6.89403C29.0284 7.02719 29.1307 7.19162 29.1897 7.37314C29.2486 7.55465 29.2625 7.74779 29.2302 7.93587C29.1978 8.12396 29.1201 8.30134 29.0039 8.45269L27.229 10.7594L27.3086 13.6679C27.3138 13.8587 27.2725 14.0479 27.1882 14.2191C27.104 14.3904 26.9792 14.5385 26.8248 14.6507C26.6705 14.7629 26.4911 14.8358 26.3022 14.8631C26.1133 14.8904 25.9206 14.8713 25.7407 14.8074L22.998 13.8328Z" fill="url(#paint5_linear_263_3)"/>
<defs>
<linearGradient id="paint0_linear_263_3" x1="9.97974" y1="28.75" x2="9.97974" y2="40.25" gradientUnits="userSpaceOnUse">
<stop stop-color="#2ABEDF"/>
<stop offset="1" stop-color="#85D635"/>
</linearGradient>
<linearGradient id="paint1_linear_263_3" x1="34.5" y1="20.125" x2="34.5" y2="28.75" gradientUnits="userSpaceOnUse">
<stop stop-color="#2ABEDF"/>
<stop offset="1" stop-color="#85D635"/>
</linearGradient>
<linearGradient id="paint2_linear_263_3" x1="11.5" y1="20.125" x2="11.5" y2="28.75" gradientUnits="userSpaceOnUse">
<stop stop-color="#2ABEDF"/>
<stop offset="1" stop-color="#85D635"/>
</linearGradient>
<linearGradient id="paint3_linear_263_3" x1="36.0188" y1="28.75" x2="36.0188" y2="40.25" gradientUnits="userSpaceOnUse">
<stop stop-color="#2ABEDF"/>
<stop offset="1" stop-color="#85D635"/>
</linearGradient>
<linearGradient id="paint4_linear_263_3" x1="22.9974" y1="19.167" x2="22.9974" y2="29.7087" gradientUnits="userSpaceOnUse">
<stop stop-color="#2ABEDF"/>
<stop offset="1" stop-color="#85D635"/>
</linearGradient>
<linearGradient id="paint5_linear_263_3" x1="22.9984" y1="2.87402" x2="22.9984" y2="43.1252" gradientUnits="userSpaceOnUse">
<stop stop-color="#2ABEDF"/>
<stop offset="1" stop-color="#85D635"/>
</linearGradient>
</defs>
</svg>
