<svg width="60" height="60" viewBox="0 0 60 60" fill="none" xmlns="http://www.w3.org/2000/svg">
<path d="M9.78864 30.8978C10.7543 30.8997 11.7094 30.6963 12.5905 30.3012C12.6482 30.2741 12.7109 30.2597 12.7746 30.2589C12.8382 30.2582 12.9013 30.271 12.9596 30.2966C13.9332 30.7166 15.0177 30.9351 16.0966 30.9238C16.2596 30.9215 16.3547 30.7415 16.2766 30.5989C15.8377 29.7961 15.5199 28.9328 15.3335 28.037C15.3115 27.9261 15.3283 27.811 15.3811 27.711C15.732 27.0272 15.9313 26.2664 15.9313 25.4615C15.9313 22.4638 13.1803 20.0287 9.78864 20.0287C6.39694 20.0287 3.65052 22.4627 3.65052 25.4615C3.65052 25.7864 3.68109 26.1068 3.74562 26.4136C4.25279 28.9608 6.76486 30.8978 9.78864 30.8978ZM56.0396 55.4932H54.7264L55.7452 38.4125C55.769 38.0157 55.7114 37.6182 55.5759 37.2445C55.4405 36.8708 55.2301 36.5287 54.9576 36.2392C54.6851 35.9498 54.3563 35.7191 53.9915 35.5614C53.6266 35.4036 53.2333 35.3221 52.8358 35.3219H14.4132C12.7377 35.3219 11.4018 36.737 11.5037 38.4125L12.5226 55.4932H3.96411C3.66386 55.4932 3.37591 55.6125 3.16361 55.8248C2.9513 56.0371 2.83203 56.3251 2.83203 56.6253C2.83203 56.9256 2.9513 57.2135 3.16361 57.4258C3.37591 57.6381 3.66386 57.7574 3.96411 57.7574H56.0396C56.3398 57.7574 56.6278 57.6381 56.8401 57.4258C57.0524 57.2135 57.1717 56.9256 57.1717 56.6253C57.1717 56.3251 57.0524 56.0371 56.8401 55.8248C56.6278 55.6125 56.3398 55.4932 56.0396 55.4932ZM33.6245 42.3068C34.6168 42.3068 35.5685 42.701 36.2701 43.4027C36.9718 44.1044 37.366 45.056 37.366 46.0483C37.366 47.0406 36.9718 47.9923 36.2701 48.694C35.5685 49.3957 34.6168 49.7898 33.6245 49.7898C32.6322 49.7898 31.6805 49.3957 30.9788 48.694C30.2772 47.9923 29.883 47.0406 29.883 46.0483C29.883 45.056 30.2772 44.1044 30.9788 43.4027C31.6805 42.701 32.6322 42.3068 33.6245 42.3068ZM17.3452 33.0578H49.9037C49.2251 31.8865 48.2512 30.9136 47.0793 30.2363C45.9073 29.5589 44.5781 29.2007 43.2245 29.1974H39.3075C41.2773 27.5446 42.8056 25.2012 43.7113 22.8578H46.915C48.3754 22.8578 49.5641 21.6691 49.5641 20.2087V17.7861C49.5641 16.8917 49.1113 16.0993 48.432 15.6238C47.7188 8.07286 41.3339 2.24268 33.6245 2.24268C25.9151 2.24268 19.5415 8.07286 18.8169 15.6238C18.1377 16.0993 17.6849 16.8917 17.6849 17.7861V20.2087C17.6849 21.6691 18.8735 22.8578 20.3339 22.8578H23.5377C24.4434 25.2012 25.9717 27.5446 27.9415 29.1974H24.0245C21.2622 29.1974 18.715 30.6917 17.3452 33.0578ZM23.1301 13.3031V13.3144C22.9264 13.8917 22.7792 14.5144 22.666 15.137H21.1377C22.066 9.09173 27.3301 4.50683 33.6245 4.50683C39.9188 4.50683 45.183 9.09173 46.1113 15.137H44.6056C43.6094 9.68041 39.0584 5.68419 33.6245 5.68419C28.8245 5.68419 24.715 8.82004 23.1301 13.3031ZM27.6132 25.5974C28.383 25.7785 29.3 25.9257 30.3641 26.0163C30.8283 27.2163 32.0169 28.0653 33.4207 28.0653C35.232 28.0653 36.6924 26.6615 36.6924 24.9295C36.6924 23.2087 35.232 21.8049 33.4207 21.8049C32.0622 21.8049 30.9075 22.5974 30.4094 23.7295C27.9301 23.5144 26.4698 22.937 25.9037 22.6653C25.7226 22.2351 25.5528 21.8049 25.4056 21.3748C24.9415 19.9823 24.7037 18.6351 24.7037 17.3559C24.6995 16.4132 24.833 15.475 25.1 14.571C25.9943 14.2993 28.2245 13.8465 31.0547 15.0691C31.8132 15.3974 32.5943 15.5332 33.3867 15.5332C36.466 15.5332 39.5792 13.4502 41.1188 12.2389C41.8909 13.5 42.3633 14.9213 42.5 16.3936C42.5339 16.7106 42.5452 17.0276 42.5452 17.3559C42.5452 18.6351 42.3075 19.9823 41.8433 21.3748C40.5867 25.1446 37.4849 29.1974 33.6245 29.1974C31.2471 29.1974 29.1528 27.6578 27.6132 25.5974Z" fill="url(#paint0_linear_266_52)"/>
<defs>
<linearGradient id="paint0_linear_266_52" x1="30.0018" y1="2.24268" x2="30.0018" y2="57.7574" gradientUnits="userSpaceOnUse">
<stop stop-color="#2BBEDD"/>
<stop offset="1" stop-color="#8BD829"/>
</linearGradient>
</defs>
</svg>
