<svg width="40" height="40" viewBox="0 0 40 40" fill="none" xmlns="http://www.w3.org/2000/svg">
<path d="M17.4994 10.4846C17.5649 10.5337 17.6304 10.5828 17.6981 10.6281C17.7593 10.6685 17.8231 10.7054 17.8869 10.7423C17.9562 10.7831 18.0258 10.8219 18.0969 10.8588C18.1798 10.901 18.2627 10.9427 18.3481 10.9794C18.3833 10.9946 18.419 11.0072 18.4545 11.0214C18.5396 11.0554 18.6256 11.0875 18.7131 11.1159C18.751 11.1281 18.789 11.1389 18.8272 11.1502C18.9144 11.1757 19.0033 11.1984 19.0931 11.2182C19.1321 11.2268 19.1718 11.2356 19.2115 11.2435C19.3041 11.261 19.398 11.2746 19.4925 11.2862C19.5297 11.2906 19.5665 11.2967 19.604 11.3002C19.7344 11.3124 19.8665 11.32 20.0003 11.32C20.1342 11.32 20.2662 11.3124 20.3969 11.3002C20.434 11.2967 20.471 11.2906 20.5081 11.2863C20.6022 11.2751 20.6959 11.2608 20.7891 11.2435C20.8288 11.2359 20.8685 11.227 20.9079 11.2182C20.9974 11.1981 21.0861 11.1757 21.1735 11.1502C21.2115 11.1392 21.2497 11.1281 21.2875 11.1159C21.3747 11.0873 21.461 11.0558 21.5461 11.0214C21.5817 11.0072 21.6173 10.9946 21.6526 10.9794C21.738 10.9426 21.8208 10.901 21.9036 10.8588C21.9748 10.822 22.0449 10.7831 22.1138 10.7423C22.1774 10.7054 22.2414 10.6685 22.3025 10.6282C22.3702 10.5835 22.4354 10.5337 22.5013 10.4845C23.5178 9.72532 24.1794 8.51944 24.1794 7.15984C24.1794 4.86589 22.3047 3 20.0006 3C17.6966 3 15.8213 4.86581 15.8213 7.15984C15.8213 8.51952 16.4828 9.72508 17.4994 10.4846ZM22.9782 11.4114C22.9694 11.4177 22.9602 11.4223 22.952 11.4281C22.9001 11.464 22.8462 11.4967 22.793 11.5307C22.7138 11.5818 22.6332 11.6306 22.5514 11.6772C22.4036 11.7604 22.2519 11.8364 22.0968 11.9049C22.0621 11.9201 22.0284 11.9365 21.9935 11.951C21.7016 12.0723 21.3992 12.1663 21.09 12.2319C21.0528 12.2402 21.0156 12.2465 20.9781 12.2537C20.8563 12.2766 20.7336 12.2953 20.6105 12.3098C20.568 12.3145 20.5258 12.3205 20.4829 12.3243C20.3232 12.3388 20.1626 12.3489 20 12.3489C19.8374 12.3489 19.6768 12.339 19.5171 12.3243C19.4742 12.3205 19.432 12.3145 19.3895 12.3098C19.2663 12.2957 19.1437 12.277 19.0219 12.2537C18.9844 12.2465 18.9472 12.2402 18.91 12.2319C18.6008 12.1665 18.2983 12.0724 18.0065 11.951C17.9716 11.9365 17.9379 11.9201 17.9032 11.905C17.7996 11.8592 17.6974 11.8101 17.597 11.7576C17.5472 11.7314 17.4978 11.7046 17.4486 11.6772C17.3668 11.6305 17.2862 11.5817 17.207 11.5307C17.1538 11.4967 17.0999 11.464 17.048 11.4281C17.0394 11.4224 17.0302 11.4173 17.0218 11.4114C14.6346 12.4096 13.0491 14.7742 13.0491 17.3791V19.6519H15.6159V18.1241C15.6159 17.8396 15.8455 17.6094 16.1288 17.6094C16.4119 17.6094 16.6415 17.8397 16.6415 18.1241V19.6519H23.359V18.1241C23.359 17.8396 23.5887 17.6094 23.8719 17.6094C24.1552 17.6094 24.3848 17.8397 24.3848 18.1241V19.6519H26.9515V17.3791C26.9509 14.7742 25.3655 12.4096 22.9782 11.4114ZM7.27726 7.27194C7.35258 7.09637 7.43147 6.92236 7.51387 6.75C7.52863 6.71936 7.54444 6.68952 7.55919 6.65887C7.64145 6.49194 7.72524 6.32629 7.81403 6.1625C7.83266 6.12879 7.85194 6.09597 7.87048 6.06226C7.94258 5.93186 8.01323 5.80113 8.09 5.67234C7.4679 4.92411 6.53516 4.48621 5.53677 4.48621C3.72258 4.48621 2.24669 5.9246 2.24669 7.69185C2.24669 8.65145 2.68363 9.51145 3.37105 10.0996C3.66792 10.3531 4.00729 10.5521 4.37347 10.6874C4.3775 10.689 4.38161 10.6902 4.38573 10.6919C4.50161 10.734 4.62008 10.7697 4.73976 10.7993C4.74798 10.8011 4.75645 10.8033 4.765 10.8056C4.88661 10.8342 5.00976 10.8566 5.13419 10.872C5.13742 10.8723 5.14081 10.873 5.14427 10.8736C5.52605 10.919 5.91766 10.8978 6.30234 10.8068C6.30637 10.7747 6.31298 10.7431 6.31742 10.711C6.33597 10.5778 6.35774 10.4455 6.3804 10.3135C6.39806 10.2102 6.41573 10.1065 6.43589 10.0035C6.45573 9.90113 6.47806 9.79871 6.5004 9.69734C6.52911 9.56589 6.55871 9.43524 6.59089 9.30508C6.60911 9.23363 6.62831 9.16274 6.64758 9.09185C6.68911 8.93621 6.73226 8.78153 6.77919 8.62815C6.79339 8.58185 6.80919 8.53548 6.82395 8.48919C6.87819 8.31744 6.93608 8.14687 6.99758 7.97758C7.00887 7.94581 7.02121 7.91468 7.03282 7.88339C7.09927 7.70516 7.16831 7.52839 7.24266 7.3529C7.25363 7.32548 7.26589 7.29903 7.27726 7.27194ZM6.78363 16.6193C6.72482 16.429 6.67031 16.2374 6.62016 16.0447C6.61073 16.0084 6.60185 15.9719 6.59306 15.936C6.5492 15.7634 6.50908 15.5899 6.47274 15.4156C6.46247 15.3669 6.45249 15.3182 6.44282 15.2694C6.41069 15.1062 6.38139 14.9424 6.35492 14.7782C6.34548 14.7206 6.33637 14.6633 6.32815 14.6056C6.30501 14.4472 6.28474 14.2883 6.26734 14.129C6.2604 14.0666 6.25282 14.0043 6.24685 13.9416C6.23145 13.7803 6.21976 13.6187 6.20968 13.4565C6.20621 13.3969 6.20056 13.3377 6.19798 13.2778C6.18734 13.058 6.18129 12.8375 6.18129 12.616C6.18129 12.3674 6.18887 12.121 6.2021 11.876C6.17879 11.8794 6.15516 11.8801 6.13194 11.8832C6.02694 11.8977 5.92234 11.9094 5.81685 11.9163C5.77621 11.9189 5.73589 11.9198 5.69524 11.9214C5.64266 11.9232 5.59 11.928 5.53718 11.928C5.49992 11.928 5.46403 11.9232 5.42685 11.9223C5.36419 11.9207 5.30186 11.9175 5.23944 11.9128C5.15196 11.9072 5.06466 11.899 4.97766 11.8883C4.93018 11.882 4.88281 11.8748 4.83556 11.8669C4.73571 11.851 4.63643 11.8316 4.5379 11.8089C4.50419 11.801 4.47137 11.7922 4.43798 11.7837C4.33036 11.7559 4.22383 11.7241 4.11863 11.6882C4.09242 11.6791 4.06661 11.6694 4.0404 11.6602C3.93332 11.6214 3.82783 11.5783 3.72419 11.531C3.69774 11.519 3.67153 11.5061 3.6454 11.4935C3.54605 11.4459 3.44854 11.3945 3.35306 11.3395C3.32347 11.3222 3.29419 11.3045 3.26452 11.2866C3.17473 11.2317 3.0869 11.1736 3.00121 11.1124C2.98548 11.101 2.96847 11.0916 2.95266 11.0799C1.14944 11.9264 0 13.7239 0 15.7378V17.3403H7.02589C6.94341 17.1169 6.86693 16.8913 6.79653 16.6637C6.79218 16.6489 6.78806 16.634 6.78363 16.6193ZM32.3141 7.35008C32.3909 7.53215 32.4635 7.71597 32.5319 7.90137C32.5451 7.93726 32.558 7.97314 32.5712 8.00944C32.6278 8.16622 32.6813 8.32407 32.7319 8.4829C32.7527 8.54686 32.7722 8.61113 32.792 8.67565C32.8305 8.80234 32.866 8.92968 32.9007 9.05782C32.9269 9.15355 32.9523 9.24968 32.976 9.34637C32.9984 9.43645 33.0189 9.5275 33.039 9.61823C33.0689 9.75024 33.0979 9.88226 33.1237 10.0155C33.1323 10.0598 33.1398 10.1044 33.1477 10.1487L33.159 10.2111L33.1606 10.2165L33.1656 10.2477C33.1896 10.384 33.2135 10.5205 33.2337 10.6581C33.3486 10.7035 33.4643 10.7473 33.5831 10.7791C33.5862 10.78 33.5894 10.7807 33.5925 10.7813C34.6419 11.0591 35.803 10.8077 36.6296 10.0998C37.3164 9.51177 37.753 8.6521 37.753 7.69315C37.753 5.92589 36.2771 4.4875 34.4629 4.4875C33.3109 4.4875 32.2625 5.06524 31.6652 6.01186C31.9027 6.43782 32.1125 6.87508 32.3012 7.32016C32.306 7.32903 32.3101 7.33935 32.3141 7.35008Z" fill="url(#paint0_linear_264_17)"/>
<path d="M34.8812 28.1332C34.7219 27.9751 34.5074 27.8862 34.2764 27.8837H34.2651C34.1825 27.8837 34.0562 27.941 33.9214 28.0204L28.0863 21.9796C29.4859 20.7447 30.6128 19.2077 31.354 17.4669C31.366 17.4385 31.3764 17.4102 31.3883 17.3823C31.4554 17.221 31.5206 17.0586 31.5814 16.8942C31.5924 16.8633 31.6025 16.8321 31.6136 16.8013C31.6728 16.6365 31.7305 16.4705 31.783 16.3026C31.7886 16.2834 31.7937 16.2645 31.7998 16.2456C32.1664 15.0527 32.3524 13.8116 32.3516 12.5636C32.3516 12.3126 32.3425 12.0565 32.3261 11.7975C32.3252 11.779 32.3233 11.7612 32.3221 11.743C32.3044 11.4906 32.2807 11.2358 32.2477 10.9794C32.2278 10.8241 32.205 10.6692 32.1794 10.5148L32.156 10.3711C32.1254 10.1975 32.0913 10.0245 32.0536 9.85226C32.0376 9.77984 32.0205 9.7071 32.0032 9.63492C31.9302 9.32725 31.8451 9.02258 31.7481 8.72161C31.7065 8.5915 31.6625 8.46212 31.6164 8.33355C31.5969 8.27839 31.5764 8.22363 31.5562 8.16879C31.5007 8.0204 31.4425 7.87298 31.3817 7.72742C31.3672 7.69218 31.3521 7.6575 31.337 7.62258C31.2687 7.46303 31.197 7.30493 31.1221 7.14839C31.1124 7.12702 31.1016 7.10621 31.0912 7.08508C31.01 6.91772 30.925 6.75219 30.8364 6.58863C30.8324 6.58105 30.8279 6.57323 30.8235 6.56532C28.6896 2.6575 24.5395 0 19.7795 0C15.2565 0 11.2853 2.40016 9.06969 5.99137C9.0205 6.07073 8.97421 6.15137 8.92727 6.23145C8.86244 6.34193 8.79687 6.45194 8.73542 6.56435C8.70615 6.61798 8.68002 6.67242 8.65163 6.72597C8.49002 7.0325 8.33824 7.345 8.20211 7.66573C8.20026 7.6704 8.19808 7.6746 8.19647 7.67895C8.13437 7.82476 8.07768 7.97315 8.02131 8.12185C7.99985 8.1779 7.97719 8.23395 7.95703 8.29073C7.90837 8.42606 7.86216 8.56227 7.8184 8.69927C7.79389 8.77492 7.76921 8.85048 7.74631 8.92669C7.70913 9.05056 7.67381 9.17524 7.63986 9.30064C7.61342 9.40001 7.5881 9.49967 7.56389 9.5996C7.53777 9.70598 7.51298 9.81268 7.48953 9.91968C7.46137 10.0533 7.43531 10.1874 7.41139 10.3219C7.41115 10.3232 7.41139 10.3244 7.41115 10.3257C7.39187 10.4344 7.37397 10.5435 7.35663 10.6531C7.35663 10.654 7.35598 10.6547 7.35566 10.6555C7.33711 10.7781 7.32066 10.9013 7.3059 11.0248V11.0264C7.27284 11.2909 7.24889 11.5471 7.23252 11.7988C7.23219 11.8038 7.23155 11.8092 7.23123 11.8142C7.2151 12.0678 7.20703 12.3164 7.20703 12.564C7.2065 13.814 7.39306 15.057 7.7605 16.2519C7.76582 16.2685 7.76994 16.2856 7.77502 16.302C7.82824 16.4715 7.88615 16.6394 7.94598 16.806C7.95647 16.8353 7.96582 16.8646 7.97663 16.894C8.0383 17.0599 8.1034 17.2246 8.17187 17.3878C8.18292 17.414 8.193 17.4402 8.20373 17.4656C10.119 21.9648 14.5863 25.1279 19.7795 25.1279C22.344 25.1279 24.7303 24.3539 26.7209 23.0311L32.6136 29.1315L32.6105 29.1349C32.2715 29.4559 32.2643 29.9849 32.5954 30.3138L36.2486 33.9428C36.4081 34.1009 36.6226 34.1901 36.8535 34.1926C37.0957 34.2049 37.3011 34.1123 37.8067 33.6148L38.8615 32.5986C38.8593 32.621 38.8662 32.092 38.5349 31.7625L34.8812 28.1332ZM27.977 20.114C27.977 20.3985 27.7474 20.6288 27.464 20.6288H12.5366C12.2534 20.6288 12.0237 20.3985 12.0237 20.114V17.3268C12.0237 14.474 13.6665 11.8744 16.1807 10.6197C15.3242 9.69444 14.7959 8.46298 14.7959 7.1075C14.7959 4.24621 17.1306 1.91879 20 1.91879C22.8692 1.91879 25.2045 4.24621 25.2045 7.1075C25.2045 8.46298 24.6765 9.69444 23.8196 10.6196C26.3338 11.8747 27.9766 14.474 27.9766 17.3268L27.977 20.114Z" fill="url(#paint1_linear_264_17)"/>
<path d="M37.0467 11.0273C37.0269 11.0422 37.0058 11.0544 36.9859 11.069C36.9227 11.1141 36.8583 11.1576 36.7928 11.1994C36.7544 11.224 36.715 11.2466 36.6756 11.2693C36.6067 11.3099 36.5377 11.3512 36.4662 11.3877C36.4396 11.4016 36.412 11.413 36.3852 11.4262C36.2435 11.4958 36.098 11.5574 35.9495 11.6108C35.9007 11.6284 35.8525 11.6477 35.8033 11.6634C35.7394 11.6839 35.6742 11.7012 35.609 11.7189C35.5466 11.7358 35.4839 11.7523 35.4206 11.7665C35.284 11.7972 35.146 11.821 35.007 11.838C34.9575 11.8439 34.9087 11.8511 34.8592 11.8556C34.7278 11.8675 34.5955 11.8754 34.4626 11.8754C34.2833 11.8754 34.106 11.8628 33.9299 11.8411C33.8722 11.8338 33.8155 11.8206 33.7582 11.8115C33.6404 11.7919 33.5229 11.7715 33.4073 11.7424C33.3878 11.7374 33.3682 11.7358 33.349 11.7311C33.3493 11.7381 33.3493 11.7453 33.3496 11.7523C33.3654 12.021 33.3761 12.291 33.3761 12.5637C33.3761 12.7852 33.3698 13.0056 33.3594 13.2256C33.3566 13.2851 33.3513 13.3447 33.3478 13.4042C33.3377 13.5665 33.3267 13.7284 33.3106 13.8894C33.3046 13.9523 33.2967 14.0147 33.2901 14.0768C33.2727 14.236 33.2524 14.3949 33.2293 14.5534C33.2211 14.6111 33.2117 14.6684 33.2025 14.726C33.1761 14.8905 33.1467 15.054 33.1146 15.2171C33.1049 15.266 33.0951 15.3148 33.085 15.3633C33.0485 15.5375 33.0079 15.7111 32.9647 15.8837C32.9555 15.9196 32.9467 15.9561 32.9376 15.9924C32.8872 16.1848 32.8327 16.3761 32.7738 16.567C32.7694 16.5815 32.7653 16.5966 32.7605 16.6111C32.6896 16.8382 32.6147 17.0641 32.5312 17.2877H39.9994V15.6853C39.9994 13.6716 38.8499 11.8741 37.0467 11.0273Z" fill="url(#paint2_linear_264_17)"/>
<defs>
<linearGradient id="paint0_linear_264_17" x1="7.07869" y1="5.19145" x2="17.0753" y2="26.3935" gradientUnits="userSpaceOnUse">
<stop stop-color="#2ABEDF"/>
<stop offset="1" stop-color="#85D635"/>
</linearGradient>
<linearGradient id="paint1_linear_264_17" x1="13.1422" y1="4.5" x2="39.4771" y2="27.3064" gradientUnits="userSpaceOnUse">
<stop stop-color="#2ABEDF"/>
<stop offset="1" stop-color="#85D635"/>
</linearGradient>
<linearGradient id="paint2_linear_264_17" x1="33.9315" y1="11.8512" x2="38.7739" y2="17.2551" gradientUnits="userSpaceOnUse">
<stop stop-color="#2ABEDF"/>
<stop offset="1" stop-color="#85D635"/>
</linearGradient>
</defs>
</svg>
