<svg width="40" height="40" viewBox="0 0 40 40" fill="none" xmlns="http://www.w3.org/2000/svg">
<g clip-path="url(#clip0_264_23)">
<path d="M30.8772 13.724C30.9348 15.2772 33.1638 15.276 33.2209 13.724V8.8924L30.8772 9.74904V13.724ZM7.54648 6.67818L19.5925 11.084C19.8524 11.1791 20.1375 11.1792 20.3973 11.0842L32.4514 6.67834C33.4709 6.30686 33.4705 4.84826 32.4515 4.47701L20.4014 0.0713091C20.1416 -0.0237697 19.8565 -0.0237697 19.5966 0.0713091L7.54664 4.47701C6.52727 4.84842 6.52766 6.30693 7.54648 6.67818ZM11.9241 25.5646C11.9241 23.3728 10.1409 21.5896 7.94906 21.5896C2.68289 21.7894 2.68437 29.3405 7.94914 29.5396C10.1409 29.5396 11.9241 27.7564 11.9241 25.5646ZM36.0241 25.5646C36.0241 23.3728 34.2409 21.5896 32.0491 21.5896C26.783 21.7894 26.7845 29.3405 32.0492 29.5396C34.2409 29.5396 36.0241 27.7564 36.0241 25.5646ZM16.0241 25.5646C16.0241 27.7564 17.8073 29.5396 19.9991 29.5396C25.2652 29.3397 25.2638 21.7887 19.999 21.5896C17.8073 21.5896 16.0241 23.3728 16.0241 25.5646ZM32.0492 29.5396C30.4798 29.5396 29.015 29.9969 27.7812 30.785C29.3408 32.5875 30.2848 34.9308 30.2848 37.4895V40H38.8272C39.4744 40 39.9991 39.4753 39.9991 38.8281V37.4895C39.9991 33.1059 36.4329 29.5396 32.0492 29.5396Z" fill="url(#paint0_linear_264_23)"/>
<path d="M19.9334 29.5392C15.5174 29.5392 11.9248 33.1055 11.9248 37.4892V39.9996H27.942V37.4891C27.942 33.1055 24.3493 29.5392 19.9334 29.5392ZM7.95 29.5392C3.56633 29.5392 0 33.1055 0 37.4891V38.8277C0 39.4749 0.524687 39.9996 1.17188 39.9996H9.58102V37.4891C9.58102 34.9049 10.544 32.5402 12.1315 30.7306C10.9159 29.9758 9.48305 29.5392 7.95 29.5392ZM27.4479 15.1941V11.0024L21.2029 13.285C20.4291 13.5698 19.5606 13.5698 18.7875 13.2843L12.5521 11.0038V15.1953C12.5521 15.4355 12.6259 15.6699 12.7635 15.8667C12.9011 16.0636 13.0959 16.2134 13.3215 16.2959L19.5935 18.5898C19.8534 18.6848 20.1384 18.6848 20.3983 18.5899L26.6783 16.2948C26.9039 16.2123 27.0987 16.0625 27.2364 15.8656C27.3741 15.6687 27.4479 15.4343 27.4479 15.1941Z" fill="url(#paint1_linear_264_23)"/>
</g>
<defs>
<linearGradient id="paint0_linear_264_23" x1="21.9995" y1="0" x2="21.9995" y2="40" gradientUnits="userSpaceOnUse">
<stop stop-color="#2ABEDF"/>
<stop offset="1" stop-color="#8ED925"/>
</linearGradient>
<linearGradient id="paint1_linear_264_23" x1="13.971" y1="11.0024" x2="13.971" y2="39.9995" gradientUnits="userSpaceOnUse">
<stop stop-color="#2ABEDF"/>
<stop offset="1" stop-color="#8ED925"/>
</linearGradient>
<clipPath id="clip0_264_23">
<rect width="40" height="40" fill="white"/>
</clipPath>
</defs>
</svg>
