<svg width="40" height="40" viewBox="0 0 40 40" fill="none" xmlns="http://www.w3.org/2000/svg">
<path fill-rule="evenodd" clip-rule="evenodd" d="M12.4093 5.67493V4.84402H35.3919V18.7897C35.3919 19.7451 34.6175 20.5196 33.6621 20.5196H24.528V22.7706C25.3417 23.0352 25.9305 23.8001 25.9305 24.7015C25.9305 25.8219 25.0209 26.7315 23.9006 26.7315C22.7803 26.7315 21.8706 25.8219 21.8706 24.7015C21.8706 23.8001 22.4595 23.0352 23.2731 22.7706V20.5196H19.5171C18.2298 18.6069 16.3431 17.1312 14.1259 16.3619C15.6552 15.2622 16.6535 13.4678 16.6535 11.4482C16.6535 8.74512 14.8653 6.44551 12.4093 5.67493ZM28.252 9.72489H25.3099C24.9635 9.72489 24.6824 10.006 24.6824 10.3523C24.6824 10.6986 24.9635 10.9798 25.3099 10.9798H28.252C28.5983 10.9798 28.8794 10.6986 28.8794 10.3523C28.8794 10.006 28.5983 9.72489 28.252 9.72489ZM29.2282 16.0491H21.0204C20.674 16.0491 20.3929 16.3303 20.3929 16.6766C20.3929 17.0229 20.674 17.304 21.0204 17.304H29.2282C29.5745 17.304 29.8557 17.0229 29.8557 16.6766C29.8557 16.3303 29.5745 16.0491 29.2282 16.0491ZM32.6859 6.56277H28.252C27.9057 6.56277 27.6245 6.84387 27.6245 7.19022C27.6245 7.53649 27.9057 7.81767 28.252 7.81767H32.6859C33.0321 7.81767 33.3133 7.53649 33.3133 7.19022C33.3133 6.84387 33.0321 6.56277 32.6859 6.56277ZM32.6859 9.72489H29.9133C29.567 9.72489 29.2859 10.006 29.2859 10.3523C29.2859 10.6986 29.567 10.9798 29.9133 10.9798H32.6859C33.0321 10.9798 33.3133 10.6986 33.3133 10.3523C33.3133 10.006 33.0321 9.72489 32.6859 9.72489ZM23.9006 23.9265C23.4728 23.9265 23.1255 24.2738 23.1255 24.7015C23.1255 25.1293 23.4728 25.4766 23.9006 25.4766C24.3284 25.4766 24.6756 25.1293 24.6756 24.7015C24.6756 24.2738 24.3284 23.9265 23.9006 23.9265ZM25.1442 12.887H23.0276C22.6813 12.887 22.4001 13.1682 22.4001 13.5145C22.4001 13.8607 22.6813 14.1419 23.0276 14.1419H25.1442C25.4906 14.1419 25.7717 13.8607 25.7717 13.5145C25.7717 13.1682 25.4906 12.887 25.1442 12.887ZM32.6859 12.887H27.168C26.8217 12.887 26.5405 13.1682 26.5405 13.5145C26.5405 13.8607 26.8217 14.1419 27.168 14.1419H32.6859C33.0321 14.1419 33.3133 13.8607 33.3133 13.5145C33.3133 13.1682 33.0321 12.887 32.6859 12.887ZM32.6859 16.0491H31.2996C30.9532 16.0491 30.6721 16.3303 30.6721 16.6766C30.6721 17.0229 30.9532 17.304 31.2996 17.304H32.6859C33.0321 17.304 33.3133 17.0229 33.3133 16.6766C33.3133 16.3303 33.0321 16.0491 32.6859 16.0491ZM37.2237 2.18669C37.2237 2.9612 36.5958 3.58912 35.8213 3.58912H11.9799C11.2053 3.58912 10.5775 2.9612 10.5775 2.18669C10.5775 1.4121 11.2053 0.78418 11.9799 0.78418H35.8213C36.5958 0.78418 37.2237 1.4121 37.2237 2.18669ZM1.23855 25.0366C1.94632 20.4988 5.87032 17.0261 10.605 17.0261C15.3422 17.0261 19.2662 20.499 19.9728 25.0367C19.981 25.0924 19.9771 25.1492 19.9613 25.2033C19.9456 25.2574 19.9184 25.3074 19.8816 25.3501C19.8448 25.3927 19.7992 25.4269 19.748 25.4503C19.6968 25.4737 19.6411 25.4859 19.5848 25.4858C17.0221 25.4858 4.18867 25.4858 1.62538 25.4847C1.56921 25.4846 1.5137 25.4725 1.46263 25.4492C1.41156 25.4258 1.36613 25.3917 1.32942 25.3491C1.29272 25.3066 1.2656 25.2567 1.24992 25.2028C1.23424 25.1488 1.23036 25.0921 1.23855 25.0366ZM10.605 16.2418C7.96538 16.2418 5.81385 14.0877 5.81385 11.4482C5.81385 8.80857 7.96538 6.65453 10.605 6.65453C13.247 6.65453 15.3986 8.80857 15.3986 11.4482C15.3986 14.0877 13.247 16.2418 10.605 16.2418ZM26.9204 38.756C27.4413 35.9596 29.8934 33.8423 32.8398 33.8423C35.7877 33.8423 38.24 35.9597 38.7615 38.7559C38.7713 38.8122 38.7687 38.8701 38.7538 38.9253C38.7389 38.9805 38.7121 39.0319 38.6753 39.0757C38.6385 39.1195 38.5925 39.1547 38.5407 39.1788C38.4888 39.203 38.4323 39.2155 38.3751 39.2156C36.4826 39.2156 29.1978 39.2156 27.3048 39.2135C27.2478 39.2135 27.1916 39.2011 27.1399 39.177C27.0883 39.153 27.0426 39.1179 27.006 39.0743C26.9694 39.0307 26.9427 38.9796 26.9279 38.9247C26.9131 38.8697 26.9106 38.8121 26.9204 38.756ZM32.8398 33.058C31.1633 33.058 29.7967 31.6897 29.7967 30.0133C29.7967 28.3367 31.1633 26.9685 32.8398 26.9685C34.5179 26.9685 35.8845 28.3367 35.8845 30.0133C35.8845 31.6897 34.5179 33.058 32.8398 33.058ZM14.947 38.756C15.4679 35.9596 17.92 33.8423 20.8664 33.8423C23.8144 33.8423 26.2666 35.9597 26.788 38.7559C26.7979 38.8122 26.7953 38.8701 26.7804 38.9253C26.7655 38.9805 26.7387 39.0319 26.7019 39.0757C26.6651 39.1195 26.6191 39.1547 26.5673 39.1788C26.5154 39.203 26.4589 39.2155 26.4017 39.2156C24.5091 39.2156 17.2244 39.2156 15.3313 39.2135C15.2744 39.2135 15.2182 39.2011 15.1665 39.177C15.1149 39.153 15.0692 39.1179 15.0326 39.0743C14.996 39.0307 14.9693 38.9796 14.9545 38.9247C14.9398 38.8697 14.9372 38.8121 14.947 38.756ZM20.8664 33.058C19.1899 33.058 17.8233 31.6897 17.8233 30.0133C17.8233 28.3367 19.1899 26.9685 20.8664 26.9685C22.5445 26.9685 23.9111 28.3367 23.9111 30.0133C23.9111 31.6897 22.5445 33.058 20.8664 33.058Z" fill="url(#paint0_linear_264_32)"/>
<defs>
<linearGradient id="paint0_linear_264_32" x1="20.0008" y1="0.78418" x2="20.0008" y2="39.2156" gradientUnits="userSpaceOnUse">
<stop stop-color="#8ED925"/>
<stop offset="1" stop-color="#44C5E2"/>
</linearGradient>
</defs>
</svg>
