<svg width="361" height="118" viewBox="0 0 361 118" fill="none" xmlns="http://www.w3.org/2000/svg">
<path fill-rule="evenodd" clip-rule="evenodd" d="M49.4936 117.43C61.7841 112.312 70.178 108.43 75.8922 105.391C84.4537 100.839 91.759 95.2775 95.6604 86.0215C97.9411 80.6176 99.1135 74.1054 98.9707 66.2828C98.8919 47.9186 98.813 29.5642 98.7342 11.2098C71.8923 -3.73578 27.095 -3.73578 0.253005 11.2049C0.174188 29.5642 0.0904455 47.9186 0.011629 66.2828C-0.131226 74.1054 1.0461 80.6176 3.32192 86.0215C7.22334 95.2775 14.5336 100.839 23.095 105.391C28.8092 108.435 37.2032 112.312 49.4887 117.43H49.4936Z" fill="#002E5E"/>
<path fill-rule="evenodd" clip-rule="evenodd" d="M49.4913 113.319C57.7473 109.871 66.23 106.236 74.1067 102.044C81.8997 97.8961 88.6385 92.9109 92.1705 84.5465C94.5744 78.8422 95.2985 72.4876 95.1852 66.3399V66.2907L94.9783 35.7788C67.2201 30.2222 21.2849 34.3158 3.89596 59.074L3.80729 66.2907V66.3399C3.69892 72.4827 4.41812 78.8422 6.82202 84.5465C10.3491 92.9109 17.0928 97.8961 24.8809 102.044C32.7576 106.236 41.2402 109.876 49.4962 113.319H49.4913Z" fill="#FFCB05"/>
<path fill-rule="evenodd" clip-rule="evenodd" d="M63.9399 64.9991C59.1912 67.2011 57.8217 74.0483 58.1468 78.8758C58.2651 80.7329 58.4769 82.6343 57.6986 84.3831C55.4375 89.4323 47.679 86.3584 49.349 79.329C51.0386 72.1912 54.5853 65.7873 54.5952 57.3884C54.6001 50.4624 51.8415 44.2999 46.2259 38.7188C47.9549 44.7925 45.0485 48.0043 41.7382 51.6791C39.9353 53.6791 38.1225 55.6446 37.2457 58.2702C36.0487 61.8563 36.4083 65.8661 39.093 69.4129C38.7925 67.1666 38.7383 65.0582 39.1274 63.1765C40.2604 57.6495 47.4524 55.0929 49.1962 50.2654C51.0583 53.3146 50.4869 57.7382 48.8613 61.881C45.8515 68.2454 39.6496 76.9103 41.2555 84.2993C42.2358 88.8017 44.4623 91.9642 48.6002 93.6687C53.7233 95.7819 60.1173 93.6489 62.5754 88.5407C63.7872 86.0234 63.8758 83.1959 63.0778 80.1221C60.3439 70.6789 62.068 67.7331 63.9399 64.9991Z" fill="white"/>
<path fill-rule="evenodd" clip-rule="evenodd" d="M63.7508 64.6892L63.7803 64.6695L64.2384 65.2015C63.3271 66.5364 62.4503 67.9157 62.1399 70.093C61.8197 72.3048 62.0759 75.354 63.4256 80.019V80.0288C63.8296 81.6052 64.0118 83.1175 63.933 84.5608C63.864 86.014 63.5242 87.3982 62.8985 88.6987C61.0661 92.5065 57.1302 94.7133 53.0957 94.8365C52.3076 94.8611 51.5194 94.8069 50.746 94.669C49.9726 94.5311 49.2091 94.3143 48.4603 94.0089V93.9991C46.3274 93.1222 44.687 91.8661 43.4506 90.2504C42.224 88.6395 41.4013 86.6741 40.9038 84.3687C39.6132 78.4377 43.1993 71.7876 46.2683 66.0882C47.0958 64.5512 47.8889 63.0833 48.5293 61.7237C49.6722 58.8075 50.283 55.7632 49.8643 53.177C49.7854 52.6844 49.6623 52.2017 49.5047 51.7485C49.4258 51.5268 49.3372 51.3101 49.2387 51.0982C48.2879 53.0687 46.4998 54.6548 44.6969 56.2607C42.4112 58.2952 40.0762 60.3789 39.4851 63.2409C39.2979 64.1572 39.2142 65.1276 39.2191 66.1473C39.2191 67.1719 39.3078 68.2458 39.4556 69.3541L38.8053 69.6201C36.8201 66.9995 36.0714 64.1276 36.2635 61.3444C36.3029 60.8025 36.3719 60.2607 36.4753 59.7336C36.5788 59.2164 36.7216 58.6843 36.8989 58.1622L36.9088 58.1425C37.7856 55.5169 39.5393 53.5662 41.3275 51.5909L41.4802 51.4184L41.4949 51.3987C44.7264 47.8224 47.554 44.6796 45.8791 38.8078L46.485 38.4531C49.3224 41.2708 51.4455 44.2461 52.8544 47.3889C54.2681 50.5416 54.9627 53.8618 54.9627 57.374C54.9627 63.0291 53.3716 67.7729 51.81 72.4329C51.0367 74.7383 50.2731 77.024 49.7116 79.3934C49.1254 81.8761 49.7608 83.8317 50.9086 85.0583C51.411 85.5903 52.0071 85.9893 52.6278 86.2307C53.2534 86.4672 53.9135 86.5558 54.5391 86.477C55.6868 86.3292 56.7509 85.61 57.3814 84.2209C58.0661 82.6889 57.943 80.9845 57.8247 79.2998L57.7952 78.886C57.5587 75.354 58.2188 70.758 60.406 67.6005C60.8395 66.9749 61.3321 66.4084 61.8887 65.9158C62.4503 65.4182 63.071 64.9995 63.7655 64.6744L63.7508 64.6892ZM62.7852 66.1177C62.6375 66.231 62.4946 66.3492 62.3567 66.4724C61.8444 66.9256 61.3912 67.4527 60.9922 68.029C58.9035 71.0339 58.2829 75.4476 58.5144 78.8515L58.5439 79.2653C58.6622 81.0337 58.7902 82.8268 58.0366 84.5312C57.2976 86.1765 56.012 87.0287 54.6277 87.211C53.879 87.3046 53.1007 87.2011 52.3667 86.9253C51.6376 86.6445 50.948 86.1864 50.3766 85.5706C49.081 84.1864 48.352 82.0042 49.0022 79.2505C49.5687 76.8614 50.3421 74.5511 51.1204 72.226C52.6672 67.6152 54.2337 62.9355 54.2386 57.3986C54.2386 53.9898 53.5637 50.7682 52.1943 47.7091C50.9775 44.99 49.214 42.4038 46.8939 39.9309C47.9382 45.3594 45.1698 48.4333 42.0417 51.9061L42.022 51.9307L41.8693 52.0982C40.1353 54.0194 38.426 55.911 37.5984 58.3937L37.5935 58.4134C37.4359 58.8912 37.3029 59.3888 37.1994 59.9011C37.096 60.4035 37.0319 60.9109 36.9975 61.4134C36.8448 63.6054 37.3177 65.8665 38.5836 67.9995C38.5295 67.3739 38.4999 66.763 38.495 66.167C38.495 65.098 38.5836 64.0734 38.7758 63.1178C39.4161 60.0094 41.8348 57.8568 44.2141 55.7386C46.1697 53.9948 48.0909 52.2854 48.8594 50.1525L49.1155 49.448L49.5145 50.0835V50.0933H49.5194C49.7904 50.5465 50.017 51.0244 50.1943 51.5219C50.3667 52.0194 50.4948 52.5367 50.5884 53.0736C51.0317 55.7977 50.3963 58.9898 49.2042 62.0193V62.039L49.1943 62.0488C48.5441 63.4232 47.7461 64.901 46.9136 66.4527C43.8988 72.0388 40.3866 78.5658 41.6181 84.2357C42.0959 86.4327 42.8742 88.3046 44.0417 89.8267C45.1993 91.339 46.7412 92.5213 48.7461 93.3488H48.7559C49.4406 93.6345 50.1598 93.8414 50.8889 93.9695C51.6229 94.0976 52.3618 94.1518 53.0908 94.1271C56.8691 94.0089 60.5538 91.9498 62.2582 88.4031C62.8394 87.1913 63.1547 85.9007 63.2187 84.5411C63.2926 83.1766 63.1153 81.7382 62.736 80.2407C61.3518 75.4624 61.1005 72.3147 61.4306 70.0142C61.667 68.3886 62.1793 67.1867 62.7951 66.1325L62.7852 66.1177Z" fill="#A7A9AC"/>
<path fill-rule="evenodd" clip-rule="evenodd" d="M132.526 34.0776H149.439L141.041 7.76258L132.526 34.0776ZM118.005 56.8879V54.1707C119.833 54.0723 121.245 53.5604 122.231 52.6054C123.216 51.6652 124.162 49.8292 125.059 47.0924L139.693 1.98864L145.723 0L162.048 48.7906C162.391 49.8932 162.793 50.8087 163.225 51.5373C163.661 52.2707 164.161 52.8368 164.715 53.2749C165.083 53.5456 165.573 53.7523 166.171 53.8902C166.774 54.0378 167.666 54.1264 168.872 54.1707V56.8879H148.508V54.1707H149.027C151.174 54.1707 152.689 53.9049 153.572 53.3733C154.444 52.8466 154.876 51.9655 154.876 50.7005C154.876 50.4839 154.812 50.1393 154.685 49.6471C154.567 49.1696 154.405 48.6183 154.199 48.003L150.714 37.6069H131.359L128.77 46.2309C128.618 46.6789 128.501 47.1662 128.413 47.6978C128.324 48.2245 128.285 48.766 128.285 49.3173C128.285 50.9761 128.707 52.1969 129.565 52.9943C130.408 53.772 131.712 54.1707 133.457 54.1707H134.212V56.8879H118H118.005ZM220.568 5.08974L201.949 56.8879H199.885L180.986 5.69026V44.006C180.986 47.4566 181.545 49.908 182.672 51.3994C183.8 52.8761 185.653 53.7031 188.251 53.8803L188.291 56.8879H170.328V53.8803C172.98 53.6736 174.848 52.8368 175.946 51.3748C177.049 49.908 177.598 47.4566 177.598 44.006V11.794C177.598 8.22036 177.226 6.06436 176.476 5.29155C175.726 4.53351 174.191 4.14956 171.858 4.14956H170.323V1.35858H186.148L202.576 45.6255L218.72 1.3635H235.236V4.14956H233.854C231.422 4.14956 229.848 4.56304 229.118 5.37523C228.392 6.19727 228.029 8.20068 228.029 11.415V47.4074C228.029 50.2673 228.402 52.1083 229.157 52.9451C229.912 53.7671 231.476 54.1756 233.858 54.1756H235.241V56.8928H213.361V54.1756H214.636C217.058 54.1756 218.656 53.7769 219.426 52.9844C220.186 52.1722 220.568 50.3264 220.568 47.4074V5.08974ZM261.219 1.3635V4.14956H259.758C257.302 4.14956 255.699 4.56304 254.958 5.37523C254.203 6.19727 253.831 8.09731 253.831 11.0803V47.0185C253.831 50.0655 254.228 52.0147 255.032 52.8761C255.826 53.7376 257.454 54.1707 259.9 54.1707H261.219V56.8879H239.168V54.1707H240.104C242.653 54.1707 244.34 53.772 245.163 52.9943C245.997 52.1919 246.404 50.3067 246.404 47.3286V11.0753C246.404 7.93979 246.021 6.00037 245.242 5.25217C244.477 4.51874 242.81 4.14956 240.261 4.14956H239.173V1.35858H261.224L261.219 1.3635ZM309.155 1.3635L313.704 14.7277L311.297 15.6285C307.429 10.6569 304.443 7.4574 302.335 6.00037C300.237 4.55812 297.928 3.83945 295.393 3.83945C294.241 3.83945 293.447 4.04619 293.006 4.43998C292.555 4.84362 292.325 5.60166 292.325 6.70427V47.4812C292.325 50.2525 292.722 52.0689 293.501 52.9106C294.29 53.7474 295.894 54.1707 298.325 54.1707H299.708V56.8879H277.583V54.1707H278.966C281.373 54.1707 282.961 53.7622 283.726 52.9549C284.505 52.1279 284.893 50.3313 284.893 47.5452V6.7092C284.893 5.60658 284.662 4.84854 284.216 4.4449C283.765 4.05111 282.971 3.84437 281.824 3.84437C279.289 3.84437 276.985 4.56304 274.882 6.0053C272.784 7.4574 269.788 10.6569 265.92 15.6335L263.513 14.7327L268.053 1.36842H309.155V1.3635ZM333.804 34.2203L320.45 7.76751C319.69 6.34002 318.91 5.39 318.097 4.89776C317.263 4.42029 316.008 4.15448 314.307 4.07573L314.381 1.3635H333.436V4.07573H332.76C330.98 4.07573 329.686 4.23324 328.877 4.5532C328.063 4.85838 327.651 5.35062 327.651 5.99545C327.651 6.28095 327.725 6.61075 327.882 7.00946C328.019 7.42294 328.343 8.06777 328.813 8.93903L339.657 29.7558L349.183 10.7111C349.477 10.1056 349.707 9.52972 349.859 8.98826C349.997 8.44679 350.08 7.94471 350.08 7.47216C350.08 6.34002 349.604 5.49337 348.658 4.92237C347.707 4.36122 346.236 4.07573 344.266 4.07573L344.344 1.3635H360.321V4.07573C357.517 4.39568 355.291 6.1825 353.61 9.42142C353.458 9.74138 353.345 9.9875 353.266 10.1401L341.27 33.2063V47.7027C341.27 50.3362 341.667 52.0738 342.452 52.9155C343.246 53.7523 344.844 54.1756 347.276 54.1756H348.658V56.8928H326.597V54.1756H327.995C330.338 54.1756 331.897 53.7769 332.667 52.9992C333.426 52.1969 333.804 50.415 333.804 47.6289V34.2203Z" fill="#002E5E"/>
<path fill-rule="evenodd" clip-rule="evenodd" d="M135.853 67.22V65.842H144.902V67.22C143.576 67.2937 142.636 67.6716 142.085 68.3583C141.54 69.0403 141.252 70.2017 141.252 71.8377V82.1376C141.252 85.6539 140.468 88.2439 138.894 89.9029C137.325 91.5712 134.879 92.4007 131.59 92.4007C128.301 92.4007 125.864 91.6265 124.203 90.0642C122.536 88.5066 121.713 86.1885 121.713 83.1054V70.2155C121.713 68.9482 121.513 68.114 121.109 67.7131C120.699 67.3168 119.886 67.1094 118.667 67.1094H118V65.842H129.178V67.1094H128.481C127.248 67.1094 126.449 67.3029 126.059 67.69C125.679 68.0679 125.484 68.9482 125.484 70.3169V83.6861C125.484 86.0687 126.054 87.8522 127.19 89.0365C128.33 90.2163 130.05 90.8062 132.364 90.8062C134.679 90.8062 136.56 90.1288 137.724 88.7877C138.904 87.4374 139.493 85.4051 139.493 82.6814V71.8331C139.493 70.1925 139.22 69.0311 138.675 68.3445C138.129 67.6624 137.184 67.2891 135.848 67.22H135.853ZM152.255 65.8052L167.467 86.0318V71.8377C167.467 70.151 167.16 68.9712 166.551 68.2799C165.937 67.5933 164.899 67.2384 163.433 67.2154V65.8052H173.212V67.2154C171.755 67.2384 170.717 67.5933 170.103 68.2799C169.484 68.9712 169.173 70.151 169.173 71.8377V92.4007H167.828L151.329 70.2892V85.7876C151.329 87.4743 151.631 88.654 152.245 89.3453C152.859 90.0274 153.892 90.3868 155.363 90.4099V91.8201H145.589L145.604 90.4099C147.07 90.3868 148.113 90.0274 148.712 89.3453C149.321 88.654 149.623 87.4743 149.623 85.7876V68.6256C149.17 68.1555 148.615 67.8006 147.967 67.5564C147.314 67.3075 146.529 67.1555 145.604 67.1048L145.589 65.8052H152.255ZM185.452 65.8052V67.1094H184.716C183.474 67.1094 182.665 67.3029 182.29 67.6808C181.91 68.0679 181.72 68.9574 181.72 70.3538V87.1931C181.72 88.6126 181.92 89.5297 182.329 89.9352C182.728 90.3361 183.552 90.5435 184.785 90.5435H185.447V91.8155H174.313V90.5435H174.786C176.072 90.5435 176.93 90.3546 177.339 89.9905C177.758 89.6172 177.963 88.7324 177.963 87.336V70.3538C177.963 68.8836 177.773 67.9758 177.373 67.6255C176.984 67.2799 176.145 67.1094 174.854 67.1094H174.308V65.8052H185.442H185.452ZM198.798 92.7141L190.817 71.1326C190.793 71.0727 190.773 71.0082 190.749 70.9436C189.838 68.5288 188.449 67.2384 186.578 67.0771V65.8098H196.908V67.0771C195.714 67.137 194.886 67.2661 194.423 67.4642C193.955 67.667 193.721 67.9712 193.721 68.3859C193.721 68.515 193.765 68.7362 193.848 69.0588C193.926 69.3768 194.048 69.7316 194.199 70.1372L200.353 86.6586L206.132 70.6625C206.249 70.3399 206.327 70.0542 206.375 69.7869C206.429 69.5242 206.453 69.2708 206.453 69.0357C206.453 68.3905 206.224 67.9159 205.762 67.6117C205.303 67.3214 204.519 67.137 203.418 67.0771V65.8098H211.794V67.0771C210.858 67.1509 210.137 67.3905 209.63 67.8145C209.129 68.2292 208.675 68.9804 208.266 70.0772L199.856 92.7141H198.794H198.798ZM213.49 91.8201V90.5481H214.133C215.366 90.5481 216.184 90.35 216.574 89.9675C216.969 89.5803 217.164 88.6817 217.164 87.2669V70.3215C217.164 68.879 216.969 67.9804 216.589 67.6301C216.199 67.2845 215.346 67.114 214.021 67.114H213.49V65.8098H232.966L235.714 71.9299L234.632 72.3124C232.927 70.257 231.372 68.8468 229.969 68.0864C228.571 67.3214 226.88 66.9389 224.892 66.9389C223.284 66.9389 222.226 67.137 221.71 67.5287C221.193 67.9205 220.935 68.7316 220.935 69.939V77.5937H222.874C224.648 77.5937 225.969 77.2619 226.831 76.6075C227.693 75.9484 228.249 74.8562 228.502 73.3262H229.828V83.3819H228.502C228.288 81.792 227.742 80.6583 226.885 79.967C226.022 79.2804 224.677 78.9394 222.879 78.9394H220.94V87.8614C220.94 88.8476 221.174 89.525 221.637 89.8937C222.104 90.2624 222.952 90.4467 224.156 90.4467C226.558 90.4467 228.683 89.9767 230.534 89.0458C232.381 88.1102 234.062 86.654 235.568 84.6677L236.688 85.0364L234.008 91.8293H213.49V91.8201ZM257.144 91.8201L249.679 79.179H246.819V87.5157C246.819 88.7693 247.018 89.585 247.413 89.9767C247.813 90.3546 248.617 90.5481 249.835 90.5481H250.493V91.8201H239.373V90.5481H240.021C241.259 90.5481 242.073 90.35 242.463 89.9582C242.857 89.5619 243.052 88.6356 243.052 87.1655V70.1464C243.052 68.8422 242.857 68.0126 242.472 67.6486C242.082 67.2937 241.244 67.1094 239.943 67.1094H239.373V65.8052H250.454C253.918 65.8052 256.545 66.3905 258.328 67.561C260.116 68.727 261.013 70.4505 261.013 72.7225C261.013 74.4369 260.399 75.801 259.161 76.8287C257.938 77.8471 256.028 78.5615 253.455 78.967L258.572 87.3406C259.395 88.6863 260.141 89.5481 260.794 89.949C261.466 90.3546 262.348 90.5481 263.464 90.5481H263.746V91.8201H257.149H257.144ZM246.819 77.8379H249.923C252.364 77.8379 254.128 77.4232 255.219 76.589C256.311 75.7641 256.856 74.4323 256.856 72.5981C256.856 70.6763 256.34 69.2662 255.326 68.3675C254.313 67.455 252.71 67.008 250.527 67.008C248.987 67.008 247.983 67.1969 247.515 67.5748C247.053 67.9481 246.814 68.7823 246.814 70.0772V77.8379H246.819ZM267.493 92.3316L264.706 85.3866L266.007 84.9304C267.562 86.8706 269.199 88.3683 270.904 89.4237C272.619 90.4744 274.276 90.9998 275.879 90.9998C277.395 90.9998 278.671 90.5205 279.695 89.5573C280.718 88.5987 281.23 87.4005 281.23 85.9719C281.23 84.5433 280.757 83.3635 279.816 82.5248C278.876 81.6814 276.937 80.8565 274.008 80.0454C273.838 80.0039 273.565 79.9256 273.194 79.8334C270.856 79.2527 269.16 78.4693 268.117 77.4923C267.362 76.7826 266.787 75.9853 266.382 75.1005C265.988 74.2111 265.788 73.2709 265.788 72.2847C265.788 70.2892 266.49 68.6256 267.908 67.3075C269.326 65.9849 271.099 65.3213 273.233 65.3213C274.067 65.3213 274.988 65.4642 276.006 65.7545C277.015 66.0402 277.624 66.1831 277.824 66.1831C278.174 66.1831 278.574 66.1232 279.012 65.9895C279.461 65.8651 279.953 65.6761 280.494 65.4319L283.11 72.0082L282.009 72.5704C280.484 70.5289 278.998 69.0035 277.56 68.0034C276.118 67.0034 274.695 66.5057 273.272 66.5057C271.85 66.5057 270.768 66.9435 269.866 67.8191C268.97 68.6993 268.526 69.7961 268.526 71.128C268.526 71.8699 268.668 72.529 268.96 73.105C269.248 73.6857 269.715 74.2203 270.339 74.7134C271.187 75.3724 272.912 76.0176 275.533 76.6674C276.162 76.8195 276.649 76.9393 276.971 77.0176C279.329 77.6306 281.078 78.5799 282.248 79.8657C283.417 81.156 284.002 82.7736 284.002 84.7276C284.002 86.8798 283.257 88.7001 281.765 90.1841C280.274 91.668 278.457 92.4146 276.313 92.4146C275.056 92.4146 273.784 92.2026 272.483 91.7878C271.187 91.3638 270.495 91.1472 270.422 91.1472C270.13 91.1472 269.759 91.244 269.311 91.4237C268.863 91.6035 268.263 91.9122 267.508 92.3408L267.493 92.3316ZM297.621 65.8098V67.114H296.885C295.648 67.114 294.834 67.3075 294.459 67.6854C294.074 68.0726 293.889 68.962 293.889 70.3584V87.1978C293.889 88.6172 294.088 89.5343 294.498 89.9398C294.897 90.3407 295.721 90.5481 296.954 90.5481H297.621V91.8201H286.482V90.5481H286.955C288.241 90.5481 289.094 90.3592 289.508 89.9951C289.932 89.6218 290.137 88.737 290.137 87.3406V70.3584C290.137 68.8883 289.942 67.9804 289.547 67.6301C289.157 67.2845 288.319 67.114 287.028 67.114H286.482V65.8098H297.621ZM321.838 65.8098L324.133 72.0681L322.915 72.4921C320.961 70.1602 319.446 68.6624 318.384 67.985C317.326 67.3075 316.162 66.9757 314.88 66.9757C314.3 66.9757 313.896 67.0725 313.672 67.2569C313.443 67.4458 313.326 67.8007 313.326 68.3214V87.419C313.326 88.7186 313.526 89.5711 313.925 89.9629C314.325 90.3592 315.134 90.5527 316.361 90.5527H317.058V91.8247H305.88V90.5527H306.577C307.79 90.5527 308.594 90.3592 308.984 89.9813C309.379 89.5896 309.569 88.7508 309.569 87.4466V68.3122C309.569 67.7914 309.452 67.4366 309.228 67.2522C308.999 67.0679 308.599 66.9711 308.015 66.9711C306.733 66.9711 305.569 67.3075 304.506 67.9804C303.444 68.6578 301.933 70.1556 299.984 72.4875L298.761 72.0635L301.056 65.8052H321.824L321.838 65.8098ZM334.288 81.2021L327.544 68.8053C327.164 68.1371 326.765 67.6947 326.355 67.4596C325.931 67.2384 325.298 67.1094 324.435 67.0725L324.474 65.8052H334.098V67.0725H333.752C332.855 67.0725 332.198 67.1462 331.793 67.2937C331.379 67.4412 331.17 67.667 331.17 67.9666C331.17 68.1002 331.209 68.2569 331.282 68.4412C331.36 68.6348 331.52 68.9343 331.759 69.3445L337.236 79.096L342.05 70.1786C342.196 69.8929 342.318 69.621 342.391 69.3721C342.46 69.1187 342.498 68.8836 342.498 68.6578C342.498 68.1325 342.26 67.7315 341.782 67.4688C341.305 67.2016 340.559 67.0679 339.565 67.0679L339.604 65.8006H347.678V67.0679C346.26 67.22 345.135 68.0541 344.287 69.5703C344.209 69.7224 344.15 69.8376 344.111 69.9113L338.055 80.7182V87.5111C338.055 88.7416 338.254 89.5573 338.649 89.9536C339.049 90.35 339.857 90.5435 341.09 90.5435H341.787V91.8155H330.643V90.5435H331.35C332.534 90.5435 333.323 90.3546 333.708 89.9905C334.093 89.6172 334.283 88.7785 334.283 87.4743V81.1975L334.288 81.2021Z" fill="#002E5E"/>
<path fill-rule="evenodd" clip-rule="evenodd" d="M24.4343 16.578H28.4244L26.4392 10.4007L24.4294 16.578H24.4343ZM21.0156 21.9326V21.2922C21.4442 21.2675 21.7792 21.1493 22.0156 20.9276C22.2471 20.7109 22.4688 20.2774 22.6806 19.6321L26.1338 9.04606L27.5525 8.58301L31.3997 20.0311C31.4834 20.2922 31.5721 20.504 31.6756 20.6764C31.779 20.8488 31.8972 20.9818 32.0253 21.0853C32.114 21.1444 32.2273 21.1937 32.3701 21.2281C32.513 21.2626 32.7199 21.2823 33.0056 21.2922V21.9326H28.2076V21.2922H28.3357C28.8431 21.2922 29.1978 21.2281 29.4047 21.105C29.6066 20.9818 29.7101 20.77 29.7101 20.4794C29.7101 20.4252 29.6953 20.3464 29.6657 20.2331C29.6362 20.1198 29.6017 19.9917 29.5524 19.8439L28.7298 17.4006H24.1683L23.5624 19.4252C23.523 19.5336 23.4983 19.6469 23.4786 19.77C23.4589 19.8932 23.4491 20.0213 23.4491 20.1493C23.4491 20.5385 23.5476 20.8242 23.7496 21.0114C23.9515 21.1937 24.257 21.2872 24.6707 21.2872H24.8481V21.9276H21.0304L21.0156 21.9326ZM45.1827 9.77511L40.7936 21.9326H40.306L35.8528 9.91796V18.908C35.8528 19.7158 35.9858 20.2922 36.2518 20.6419C36.5178 20.9917 36.9563 21.1789 37.5671 21.2232V21.9326H33.3455V21.2232C33.9711 21.1739 34.4144 20.9818 34.6706 20.637C34.9317 20.2922 35.0597 19.7158 35.0597 18.908V11.3514C35.0597 10.514 34.9711 10.0066 34.7888 9.82437C34.6164 9.64703 34.2519 9.55344 33.7051 9.55344H33.3406V8.9032H37.0696L40.9414 19.2922L44.7443 8.9032H48.6359V9.55344H48.3108C47.7394 9.55344 47.3699 9.65688 47.1926 9.84407C47.0202 10.0313 46.9364 10.5042 46.9364 11.2578V19.706C46.9364 20.3809 47.0251 20.8094 47.2024 21.0065C47.3798 21.1986 47.7443 21.2922 48.3108 21.2922H48.6359V21.9326H43.4783V21.2922H43.7788C44.3502 21.2922 44.7295 21.1986 44.9069 21.0114C45.0891 20.8193 45.1778 20.3858 45.1778 19.706V9.77511H45.1827ZM54.7589 8.9032V9.55344H54.4141C53.8378 9.55344 53.4585 9.65688 53.2811 9.84407C53.1038 10.0313 53.0151 10.4845 53.0151 11.184V19.6173C53.0151 20.3267 53.1087 20.7897 53.2959 20.9917C53.488 21.1937 53.8673 21.2922 54.4486 21.2922H54.7589V21.9326H49.5669V21.2922H49.7886C50.3846 21.2922 50.7836 21.1986 50.9758 21.0163C51.1728 20.8291 51.2664 20.3858 51.2664 19.6863V11.1741C51.2664 10.45 51.1826 9.98693 50.9955 9.81452C50.8181 9.64703 50.424 9.55344 49.8231 9.55344H49.5669V8.9032H54.7589ZM66.0543 8.9032L67.1282 12.0362L66.5617 12.2431C65.6504 11.0756 64.9411 10.3268 64.4435 9.98693C63.9559 9.65196 63.4091 9.48447 62.8081 9.48447C62.5421 9.48447 62.35 9.52881 62.2465 9.62733C62.1381 9.72092 62.084 9.89826 62.084 10.1544V19.7257C62.084 20.3759 62.1776 20.7996 62.3598 21.0015C62.547 21.1937 62.9263 21.2922 63.4977 21.2922H63.8229V21.9326H58.6111V21.2922H58.9362C59.5027 21.2922 59.8771 21.1986 60.0544 21.0065C60.2416 20.8143 60.3303 20.3907 60.3303 19.7405V10.1495C60.3303 9.89333 60.2761 9.716 60.1677 9.6224C60.0643 9.52388 59.8771 9.47955 59.6062 9.47955C59.0101 9.47955 58.4633 9.65196 57.9707 9.982C57.4781 10.3219 56.7737 11.0756 55.8575 12.2381L55.286 12.0312L56.3599 8.89827H66.0396L66.0543 8.9032ZM71.8621 16.6124L68.7144 10.4007C68.5371 10.0657 68.3548 9.849 68.1627 9.73077C67.9656 9.61747 67.6701 9.55344 67.2661 9.53866L67.2859 8.9032H71.7735V9.53866H71.6109C71.1922 9.53866 70.8868 9.57314 70.6947 9.64703C70.5026 9.72092 70.404 9.83915 70.404 9.98693C70.404 10.051 70.4237 10.1298 70.4582 10.2283C70.4927 10.3219 70.5666 10.4746 70.6799 10.6766L73.2365 15.5583L75.4778 11.0904C75.5468 10.9475 75.601 10.8145 75.6355 10.6815C75.665 10.5583 75.6847 10.445 75.6847 10.3268C75.6847 10.0608 75.5764 9.85885 75.3547 9.73077C75.133 9.59777 74.7833 9.53373 74.3202 9.53373L74.3399 8.89827H78.1034V9.53373C77.4433 9.60762 76.9162 10.0313 76.5222 10.7899C76.4877 10.8687 76.4581 10.9229 76.4433 10.9623L73.6109 16.376V19.775C73.6109 20.3907 73.7045 20.7996 73.8917 21.0015C74.0788 21.1937 74.4582 21.2922 75.0296 21.2922H75.3596V21.9326H70.1627V21.2922H70.4927C71.0444 21.2922 71.4089 21.1986 71.5961 21.0163C71.7735 20.8291 71.8621 20.4055 71.8621 19.7553V16.6124Z" fill="white"/>
<path fill-rule="evenodd" clip-rule="evenodd" d="M24.924 25.0323V24.7071H26.9092V25.0323C26.6186 25.052 26.4166 25.1406 26.2934 25.3032C26.1752 25.4657 26.1112 25.7416 26.1112 26.1258V28.5691C26.1112 29.4016 25.9388 30.0174 25.5939 30.4066C25.2491 30.8056 24.7122 30.9977 23.993 30.9977C23.2738 30.9977 22.7368 30.8154 22.3723 30.446C22.0078 30.0716 21.8255 29.5248 21.8255 28.7957V25.7416C21.8255 25.4411 21.7812 25.2441 21.6876 25.1456C21.6039 25.052 21.4216 25.0027 21.1556 25.0027H21.0078V24.7022H23.461V25.0027H23.3083C23.0373 25.0027 22.8649 25.047 22.7763 25.1406C22.6974 25.2342 22.6531 25.4362 22.6531 25.7662V28.9337C22.6531 29.4903 22.7763 29.9189 23.0275 30.1997C23.2787 30.4804 23.658 30.6184 24.1605 30.6184C24.6629 30.6184 25.0816 30.4558 25.3378 30.1405C25.5939 29.8204 25.727 29.3376 25.727 28.6923V26.1209C25.727 25.7317 25.6629 25.4559 25.5447 25.2933C25.4265 25.1357 25.2196 25.047 24.924 25.0273V25.0323ZM28.9634 24.6973L32.3032 29.4854V26.1258C32.3032 25.7268 32.2342 25.446 32.1012 25.2835C31.9682 25.1209 31.7416 25.0372 31.4165 25.0323V24.6973H33.5643V25.0323C33.2441 25.0372 33.0175 25.1209 32.8845 25.2835C32.7465 25.446 32.6727 25.7268 32.6727 26.1258V30.9977H32.382L28.7614 25.7613V29.4361C28.7614 29.8351 28.8254 30.111 28.9634 30.2785C29.0964 30.441 29.323 30.5248 29.6481 30.5297V30.8647H27.5003V30.5297C27.8254 30.5248 28.052 30.441 28.185 30.2785C28.318 30.111 28.387 29.8351 28.387 29.4361V25.3672C28.2836 25.2539 28.1653 25.1702 28.0225 25.1111C27.8796 25.047 27.7023 25.0175 27.5052 25.0027V24.6973H28.9634ZM36.6923 24.6973V25.0076H36.5297C36.2539 25.0076 36.0765 25.052 36.0027 25.1456C35.914 25.2391 35.8746 25.446 35.8746 25.7761V29.7662C35.8746 30.1061 35.9189 30.3228 36.0076 30.4164C36.0913 30.5149 36.2736 30.5642 36.5445 30.5642H36.6923V30.8647H34.2441V30.5642H34.3475C34.6283 30.5642 34.8155 30.5199 34.9091 30.4312C35.0027 30.3425 35.0519 30.1307 35.0519 29.8007V25.7761C35.0519 25.4263 35.0076 25.2145 34.9189 25.1308C34.8352 25.052 34.648 25.0076 34.3672 25.0076H34.2441V24.6973H36.6923ZM40.0617 31.0716L38.313 25.9534C38.313 25.9534 38.2982 25.9239 38.2982 25.9091C38.0962 25.3377 37.7957 25.0323 37.3819 24.9928V24.6924H39.6479V24.9928C39.3868 25.0027 39.2046 25.0372 39.1061 25.0815C39.0026 25.1357 38.9534 25.2047 38.9534 25.3032C38.9534 25.3327 38.9583 25.3869 38.9829 25.4608C39.0026 25.5347 39.0272 25.6185 39.0617 25.717L40.4164 29.6282L41.6824 25.8401C41.707 25.7613 41.7218 25.6923 41.7316 25.6332C41.7464 25.5692 41.7513 25.5101 41.7513 25.4559C41.7513 25.3032 41.6971 25.1899 41.5986 25.1209C41.4952 25.052 41.3277 25.0027 41.0863 24.9928V24.6924H42.9237V24.9928C42.7168 25.0126 42.5592 25.0717 42.4508 25.1702C42.3326 25.2687 42.239 25.446 42.1503 25.7071L40.308 31.0716H40.0765H40.0617ZM43.7267 30.8598V30.5593H43.8695C44.1405 30.5593 44.3178 30.5149 44.4015 30.4213C44.4902 30.3277 44.5296 30.1159 44.5296 29.7809V25.7662C44.5296 25.4214 44.4902 25.2145 44.4065 25.1308C44.3227 25.052 44.1355 25.0076 43.84 25.0076H43.7267V24.6973H48.0025L48.6034 26.1505L48.367 26.2391C47.9926 25.7515 47.6527 25.4165 47.3424 25.2391C47.037 25.0569 46.6626 24.9633 46.2242 24.9633C45.8744 24.9633 45.6429 25.0076 45.5296 25.1061C45.4163 25.1948 45.3572 25.3869 45.3572 25.6726V27.4903H45.7858C46.1749 27.4903 46.4655 27.4115 46.6577 27.2539C46.8449 27.1012 46.968 26.8401 47.0222 26.4756H47.3128V28.8598H47.0222C46.9729 28.4854 46.8547 28.2145 46.6675 28.0519C46.4754 27.8844 46.1848 27.8105 45.7907 27.8105H45.3621V29.9238C45.3621 30.1603 45.4163 30.3179 45.5148 30.4066C45.6183 30.4903 45.8055 30.5346 46.0665 30.5346C46.5936 30.5346 47.0567 30.4263 47.4655 30.2046C47.8744 29.9829 48.2389 29.6381 48.569 29.1652L48.8153 29.2489L48.2291 30.8598H43.7218H43.7267ZM53.7512 30.8598L52.1157 27.8647H51.4852V29.8401C51.4852 30.1356 51.5295 30.3327 51.6133 30.4263C51.7019 30.5149 51.8793 30.5642 52.1453 30.5642H52.293V30.8647H49.8497V30.5642H49.9926C50.2635 30.5642 50.4409 30.5199 50.5246 30.4263C50.6133 30.3327 50.6527 30.111 50.6527 29.7662V25.7367C50.6527 25.4263 50.6083 25.2293 50.5246 25.1456C50.4409 25.0618 50.2586 25.0175 49.9729 25.0175H49.8448V24.7071H52.2783C53.0369 24.7071 53.6132 24.8451 54.0073 25.1258C54.3965 25.4017 54.5984 25.8106 54.5984 26.3475C54.5984 26.7514 54.4605 27.0766 54.1896 27.3179C53.9236 27.5593 53.5048 27.7268 52.9384 27.8253L54.0566 29.8105C54.2388 30.1307 54.4014 30.3327 54.5442 30.4263C54.692 30.5248 54.8841 30.574 55.1304 30.574H55.1945V30.8745H53.7462L53.7512 30.8598ZM51.4852 27.5445H52.165C52.697 27.5445 53.0861 27.446 53.3275 27.249C53.564 27.0519 53.6871 26.7416 53.6871 26.3081C53.6871 25.8746 53.5738 25.5199 53.3521 25.3032C53.1305 25.0864 52.7807 24.983 52.298 24.983C51.963 24.983 51.7413 25.0273 51.6379 25.116C51.5344 25.2047 51.4852 25.4017 51.4852 25.7071V27.5445ZM56.4605 30.9829L55.8496 29.3376L56.1353 29.2292C56.4752 29.6874 56.8348 30.047 57.2092 30.2933C57.5836 30.5445 57.9481 30.6676 58.3028 30.6676C58.6378 30.6676 58.9136 30.5543 59.1402 30.3277C59.3668 30.1061 59.4801 29.8154 59.4801 29.4805C59.4801 29.1455 59.3718 28.8598 59.1698 28.6627C58.9629 28.4608 58.5393 28.2637 57.8939 28.0716C57.8545 28.0618 57.7954 28.0421 57.7166 28.0224C57.2043 27.8844 56.8299 27.6972 56.5984 27.4706C56.4358 27.2933 56.3078 27.111 56.2191 26.8992C56.1353 26.6874 56.091 26.4657 56.091 26.2342C56.091 25.7662 56.2437 25.3672 56.5541 25.0569C56.8644 24.7465 57.2536 24.584 57.7215 24.584C57.9087 24.584 58.1058 24.6185 58.3324 24.6874C58.5491 24.7564 58.687 24.7909 58.7314 24.7909C58.8053 24.7909 58.8939 24.7761 58.9925 24.7416C59.086 24.7121 59.1944 24.6677 59.3176 24.6086L59.889 26.1702L59.6476 26.3032C59.3126 25.8155 58.9875 25.4559 58.6673 25.2194C58.3471 24.983 58.0417 24.8598 57.7265 24.8598C57.4112 24.8598 57.1747 24.9682 56.9777 25.1702C56.7807 25.3771 56.6821 25.6382 56.6821 25.9534C56.6821 26.1308 56.7117 26.2835 56.7757 26.4214C56.8349 26.5593 56.9383 26.6874 57.0762 26.8056C57.2634 26.9633 57.6427 27.116 58.2191 27.2687C58.357 27.3081 58.4604 27.3327 58.5343 27.3524C59.0516 27.5002 59.4358 27.7219 59.6919 28.0273C59.953 28.3327 60.0762 28.7219 60.0762 29.1849C60.0762 29.6923 59.9136 30.1258 59.5836 30.4755C59.2585 30.8302 58.8594 31.0075 58.3865 31.0075C58.1107 31.0075 57.8299 30.9583 57.5442 30.8598C57.2585 30.7514 57.1058 30.707 57.091 30.707C57.027 30.707 56.9432 30.7267 56.8447 30.776C56.7462 30.8154 56.6181 30.8893 56.4457 30.9928L56.4605 30.9829ZM63.5145 24.6973V25.0076H63.352C63.0811 25.0076 62.9037 25.052 62.82 25.1456C62.7362 25.2391 62.6919 25.446 62.6919 25.7761V29.7662C62.6919 30.1061 62.7412 30.3228 62.8249 30.4164C62.9136 30.5149 63.0958 30.5642 63.3618 30.5642H63.5096V30.8647H61.0663V30.5642H61.1747C61.4555 30.5642 61.6377 30.5199 61.7313 30.4312C61.8249 30.3425 61.8693 30.1307 61.8693 29.8007V25.7761C61.8693 25.4263 61.8249 25.2145 61.7412 25.1308C61.6574 25.052 61.4702 25.0076 61.1845 25.0076H61.0663V24.6973H63.5096H63.5145ZM69.2731 24.6973L69.7755 26.1849L69.5095 26.2785C69.0859 25.7268 68.7509 25.3771 68.5145 25.2145C68.2829 25.052 68.0317 24.9731 67.7411 24.9731C67.6179 24.9731 67.5342 24.9978 67.48 25.0372C67.4307 25.0815 67.4061 25.1653 67.4061 25.2884V29.8154C67.4061 30.1258 67.4504 30.3228 67.5391 30.4164C67.6229 30.51 67.8051 30.5593 68.0711 30.5593H68.2238V30.8598H65.7657V30.5593H65.9234C66.1894 30.5593 66.3667 30.5149 66.4505 30.4263C66.5342 30.3327 66.5835 30.1356 66.5835 29.8253V25.2933C66.5835 25.1702 66.5588 25.0864 66.5046 25.0421C66.4603 24.9978 66.3716 24.9781 66.2386 24.9781C65.9579 24.9781 65.7066 25.0569 65.4751 25.2194C65.2387 25.382 64.9086 25.7317 64.48 26.2884L64.214 26.1899L64.7165 24.7022H69.278L69.2731 24.6973ZM72.4405 28.3475L70.9627 25.4066C70.879 25.249 70.7903 25.1406 70.7016 25.0864C70.608 25.0372 70.4701 25.0076 70.278 24.9978L70.2878 24.6973H72.4011V24.9978H72.3272C72.1302 24.9978 71.9873 25.0175 71.8987 25.052C71.81 25.0864 71.7607 25.1406 71.7607 25.2096C71.7607 25.2441 71.7657 25.2835 71.7854 25.3229C71.8001 25.3672 71.8346 25.4362 71.8888 25.5347L73.0908 27.8401L74.1449 25.7268C74.1794 25.6579 74.204 25.5938 74.2188 25.5347C74.2336 25.4756 74.2484 25.4165 74.2484 25.3672C74.2484 25.2391 74.1942 25.1456 74.0858 25.0864C73.9774 25.0224 73.8198 24.9879 73.5981 24.9879L73.608 24.6874H75.3814V24.9879C75.071 25.0273 74.8247 25.2244 74.6375 25.584C74.6228 25.6185 74.608 25.648 74.5981 25.6628L73.273 28.2243V29.8351C73.273 30.1307 73.3174 30.3179 73.4011 30.4164C73.4898 30.51 73.6622 30.5593 73.9331 30.5593H74.0858V30.8598H71.6376V30.5593H71.7952C72.0514 30.5593 72.2287 30.5149 72.3124 30.4263C72.3962 30.3376 72.4356 30.1356 72.4356 29.8302V28.3425L72.4405 28.3475Z" fill="white"/>
<path fill-rule="evenodd" clip-rule="evenodd" d="M42.2107 90.6953C47.122 100.73 67.9049 96.8873 65.5207 83.0156C67.1857 83.587 68.097 85.1782 68.3236 87.518C68.5847 90.2126 67.8212 92.7692 67.496 95.4243C67.097 98.7494 67.0428 101.892 67.3532 105.444C65.6488 106.262 63.9345 107.06 62.2055 107.838C61.9148 106.739 61.6291 105.641 61.368 104.577C60.969 104.73 60.506 104.848 60.0824 104.912C60.3681 106.074 60.6686 107.232 60.9641 108.395L59.5405 109.025C59.0971 107.951 58.6489 106.877 58.2203 105.828C57.6637 105.799 56.9149 105.769 56.4026 105.685C56.9839 106.976 57.575 108.306 58.1661 109.626L56.5455 110.326C55.7573 108.823 54.9593 107.286 54.181 105.808C53.6095 105.784 53.0628 105.72 52.5307 105.641C53.4815 107.331 54.4667 109.089 55.4272 110.808L53.6884 111.552L46.0382 100.71C50.4815 104.636 59.8114 104.744 64.0577 100.237C65.2892 99.2174 64.4517 97.0302 62.3483 98.774C60.5947 100.212 58.2942 101.129 55.9346 101.513C52.3041 102.109 48.521 101.434 45.4914 99.2715C43.0333 97.5129 41.2551 94.7248 42.2058 90.6953H42.2107ZM47.5456 97.8972C47.7229 97.9366 47.8412 98.0942 47.8067 98.2518C47.7771 98.4095 47.6096 98.508 47.4323 98.4735C47.255 98.439 47.1367 98.2765 47.1712 98.1188C47.2008 97.9612 47.3732 97.8627 47.5505 97.8972H47.5456ZM49.1515 98.1829C49.5111 98.2568 49.7475 98.577 49.6884 98.8972C49.6195 99.2174 49.2746 99.4193 48.915 99.3454C48.5604 99.2715 48.3141 98.9513 48.383 98.6262C48.4471 98.306 48.7919 98.1041 49.1564 98.1829H49.1515ZM50.516 98.5819C50.4175 98.8676 50.4717 99.2568 50.7721 99.5129C51.1219 99.8085 51.5652 99.7641 51.9889 99.7789C56.3928 99.8971 60.0183 98.5523 62.8754 95.7396C63.2793 95.3012 63.2055 94.71 62.7818 94.7642C59.5405 97.0992 55.8804 98.3947 52.0135 98.1139C51.5702 98.0844 50.7327 97.9563 50.516 98.5819Z" fill="#002E5E"/>
<path d="M118 101.143H248.643V103.25H118V101.143Z" fill="#002E5E"/>
<path d="M250.75 109.79C250.75 111.222 251.072 112.59 251.701 113.861C252.35 115.137 253.276 116.159 254.499 116.885C255.722 117.635 257.114 118 258.684 118C260.12 118 261.462 117.659 262.685 116.997C263.933 116.339 264.904 115.336 265.577 114.041C266.251 112.746 266.592 111.266 266.592 109.605C266.592 107.945 266.27 106.513 265.622 105.238C264.973 103.942 264.047 102.939 262.824 102.233C261.595 101.508 260.209 101.143 258.684 101.143C256.346 101.143 254.449 101.917 252.969 103.441C251.488 104.989 250.75 107.102 250.75 109.785V109.79ZM253.018 109.834C253.018 107.38 253.573 105.627 254.707 104.58C255.816 103.533 257.158 103.012 258.708 103.012C259.793 103.012 260.768 103.285 261.645 103.83C262.522 104.376 263.195 105.15 263.656 106.129C264.096 107.107 264.324 108.266 264.324 109.61C264.324 111.704 263.794 113.316 262.73 114.455C261.665 115.594 260.303 116.159 258.659 116.159C257.015 116.159 255.697 115.589 254.633 114.474C253.543 113.335 253.013 111.791 253.013 109.834H253.018ZM271.594 117.727H273.699V104.921L282.395 117.727H284.638V101.444H282.534V114.226L273.838 101.444H271.594V117.727ZM290.447 117.727H300.813V115.818H292.646V101.444H290.447V117.727ZM305.993 117.727H308.192V101.444H305.993V117.727ZM314.228 117.727H316.333V104.921L325.029 117.727H327.273V101.444H325.168V114.226L316.472 101.444H314.228V117.727ZM333.22 117.727H345.571V115.818H335.414V110.267H344.576V108.359H335.414V103.378H345.2V101.444H333.215V117.727H333.22Z" fill="#002E5E"/>
</svg>
