<svg width="60" height="60" viewBox="0 0 60 60" fill="none" xmlns="http://www.w3.org/2000/svg">
<path d="M53.6096 24.4184L47.5187 27.6093L33.955 29.5729V32.5093H48.5823V39.3093L41.055 41.1729C40.646 41.2729 40.355 41.6456 40.355 42.0729L40.3369 58.182H44.9732L44.946 46.2365C44.946 45.7275 45.3641 45.3093 45.8732 45.3093H52.9914C55.1369 45.3093 56.8732 43.5729 56.8732 41.4275V27.682C56.8732 25.8729 55.4096 24.4184 53.6096 24.4184ZM48.8278 24.1002C51.5369 24.1002 53.7278 21.9093 53.7278 19.2002C53.7278 16.4911 51.5369 14.3002 48.8278 14.3002C46.1187 14.3002 43.9278 16.4911 43.9278 19.2002C43.9278 21.9002 46.1187 24.1002 48.8278 24.1002ZM22.0641 21.2456C24.7732 21.2456 26.9641 19.0547 26.9641 16.3456C26.9641 13.6365 24.7732 11.4456 22.0641 11.4456C19.355 11.4456 17.1641 13.6365 17.1641 16.3456C17.1732 19.0547 19.3641 21.2456 22.0641 21.2456ZM31.5823 12.3093H40.2278L43.2278 14.3729V7.06381C43.2278 4.16381 40.8823 1.81836 37.9823 1.81836H31.5823C28.6823 1.81836 26.3369 4.16381 26.3369 7.06381C26.3369 9.96381 28.6823 12.3093 31.5823 12.3093ZM30.855 4.50018H38.4005C38.9005 4.50018 39.3096 4.90927 39.3096 5.40927C39.3096 5.90927 38.9005 6.31836 38.4005 6.31836H30.855C30.355 6.31836 29.9459 5.90927 29.9459 5.40927C29.9459 4.90927 30.355 4.50018 30.855 4.50018ZM30.855 7.80927H34.7732C35.2732 7.80927 35.6823 8.21836 35.6823 8.71836C35.6823 9.21836 35.2732 9.62745 34.7732 9.62745H30.855C30.355 9.62745 29.9459 9.21836 29.9459 8.71836C29.9459 8.21836 30.355 7.80927 30.855 7.80927ZM10.6914 44.5638H33.4369V58.182H10.6914V44.5638ZM16.8914 29.682C16.8914 29.182 17.3005 28.7729 17.8005 28.7729C18.3005 28.7729 18.7096 29.182 18.7096 29.682V32.5093H25.4278V29.682C25.4278 29.182 25.8369 28.7729 26.3369 28.7729C26.8369 28.7729 27.246 29.182 27.246 29.682V32.5093H31.3732V27.8911C31.3732 27.7184 31.3641 27.5456 31.346 27.3729C31.1005 24.9093 28.8732 23.1184 26.3914 23.1184H17.7369C15.2641 23.1184 13.0369 24.9093 12.7823 27.3729C12.7641 27.5456 12.755 27.7184 12.755 27.8911V32.5093H16.8823V29.682H16.8914Z" fill="url(#paint0_linear_266_42)"/>
<path d="M3.12891 34.3271H41.0107V37.7271H3.12891V34.3271ZM10.7016 42.7453H33.4471L39.338 39.5453H4.80163L10.7016 42.7453Z" fill="url(#paint1_linear_266_42)"/>
<defs>
<linearGradient id="paint0_linear_266_42" x1="33.7823" y1="1.81836" x2="33.7823" y2="58.182" gradientUnits="userSpaceOnUse">
<stop stop-color="#2BBEDE"/>
<stop offset="1" stop-color="#88D72F"/>
</linearGradient>
<linearGradient id="paint1_linear_266_42" x1="22.0698" y1="34.3271" x2="22.0698" y2="42.7453" gradientUnits="userSpaceOnUse">
<stop stop-color="#2BBEDE"/>
<stop offset="1" stop-color="#88D72F"/>
</linearGradient>
</defs>
</svg>
