<svg width="60" height="60" viewBox="0 0 60 60" fill="none" xmlns="http://www.w3.org/2000/svg">
<g clip-path="url(#clip0_266_48)">
<path d="M59.4721 4.57605C59.3033 3.67875 58.7952 2.90086 58.0413 2.38582L56.1537 1.09594C54.5975 0.0326953 52.4665 0.433594 51.4031 1.98973L44.6452 11.8794V3.34992C44.6452 1.76121 43.3527 0.46875 41.7639 0.46875H3.34992C1.76121 0.46875 0.46875 1.76121 0.46875 3.34992V56.9556C0.46875 57.8017 0.881602 58.5977 1.57324 59.085C2.01278 59.3944 2.53723 59.5605 3.07477 59.5603C3.62227 59.5586 39.8573 54.6149 40.406 54.5873C42.7434 54.5234 44.6452 52.5338 44.6452 50.1518V28.0486L55.4808 12.1916L56.3167 14.4277C56.3824 14.6037 56.4048 14.7929 56.3822 14.9793C56.3596 15.1658 56.2925 15.3442 56.1866 15.4993L52.1988 21.3352C52.0936 21.4891 52.0539 21.6786 52.0884 21.8618C52.1229 22.0451 52.2287 22.2072 52.3827 22.3124C52.5367 22.4176 52.7261 22.4573 52.9094 22.4228C53.0927 22.3884 53.2547 22.2825 53.3599 22.1285L57.3477 16.2927C57.5806 15.9513 57.7282 15.5591 57.778 15.1488C57.8277 14.7386 57.7783 14.3224 57.6339 13.9352L56.4511 10.7716L58.935 7.13672C59.4502 6.38285 59.6408 5.47348 59.4721 4.57605ZM31.1759 37.4407C31.2108 37.6748 31.2938 37.8991 31.4197 38.0995C31.5455 38.2999 31.7115 38.4722 31.9071 38.6053C31.9171 38.6121 31.9274 38.6179 31.9375 38.6244C30.2081 39.8387 28.5614 40.2881 27.3595 39.855C26.7585 39.6382 25.9801 39.098 25.6853 37.7545C25.4899 36.8646 25.2693 36.7697 25.26 36.7661C24.9064 36.6278 23.5932 37.555 22.5383 38.2993C21.2201 39.2295 20.5276 39.6059 19.9083 39.3798C19.3616 39.1799 19.2237 38.6514 19.1021 38.1853C19.0536 37.9993 19.0035 37.8071 18.9288 37.6018C18.9254 37.5922 18.9217 37.5828 18.9176 37.5735H18.9125C18.487 37.5735 17.1804 38.3372 15.915 39.0766C15.1812 39.5055 14.3496 39.9916 13.3887 40.5207C13.2256 40.6069 13.0353 40.6256 12.8586 40.5728C12.6819 40.52 12.533 40.3999 12.4441 40.2383C12.3551 40.0768 12.3331 39.8868 12.3829 39.7092C12.4327 39.5316 12.5502 39.3807 12.7102 39.289C13.6553 38.7686 14.4788 38.2873 15.2052 37.8627C17.4137 36.5718 18.5218 35.9237 19.4311 36.2525C19.6954 36.3479 20.0521 36.5762 20.2502 37.1213C20.3474 37.3886 20.4114 37.6336 20.4626 37.8305C20.4718 37.8657 20.4819 37.9045 20.4923 37.9433C20.7054 37.8346 21.0776 37.6089 21.7274 37.1504C23.5242 35.8826 24.7114 35.0447 25.7684 35.4551C26.6026 35.7787 26.9041 36.7504 27.0585 37.453C27.2489 38.3203 27.6908 38.4797 27.8361 38.5321C28.5778 38.7991 29.8574 38.3729 31.1756 37.4407H31.1759ZM9.23754 15.9702H35.8761C36.0626 15.9702 36.2415 16.0443 36.3733 16.1761C36.5052 16.308 36.5793 16.4868 36.5793 16.6733C36.5793 16.8598 36.5052 17.0386 36.3733 17.1705C36.2415 17.3024 36.0626 17.3764 35.8761 17.3764H9.23754C9.05106 17.3764 8.87222 17.3024 8.74035 17.1705C8.60849 17.0386 8.53441 16.8598 8.53441 16.6733C8.53441 16.4868 8.60849 16.308 8.74035 16.1761C8.87222 16.0443 9.05106 15.9702 9.23754 15.9702ZM8.53441 10.8568C8.53441 10.6704 8.60849 10.4915 8.74035 10.3597C8.87222 10.2278 9.05106 10.1537 9.23754 10.1537H35.8761C36.0626 10.1537 36.2415 10.2278 36.3733 10.3597C36.5052 10.4915 36.5793 10.6704 36.5793 10.8568C36.5793 11.0433 36.5052 11.2222 36.3733 11.354C36.2415 11.4859 36.0626 11.56 35.8761 11.56H9.23754C9.05106 11.56 8.87222 11.4859 8.74035 11.354C8.60849 11.2222 8.53441 11.0433 8.53441 10.8568ZM9.23754 21.7868H22.5568C22.7433 21.7868 22.9222 21.8609 23.054 21.9927C23.1859 22.1246 23.26 22.3034 23.26 22.4899C23.26 22.6764 23.1859 22.8552 23.054 22.9871C22.9222 23.119 22.7433 23.193 22.5568 23.193H9.23754C9.05106 23.193 8.87222 23.119 8.74035 22.9871C8.60849 22.8552 8.53441 22.6764 8.53441 22.4899C8.53441 22.3034 8.60849 22.1246 8.74035 21.9927C8.87222 21.8609 9.05106 21.7868 9.23754 21.7868ZM35.9229 47.9899V50.2281C35.9229 51.4157 36.3918 52.5258 37.2431 53.3541C37.3148 53.4233 37.3888 53.4901 37.4651 53.5543L10.0587 57.2271L35.923 47.9899H35.9229ZM33.0506 37.4475C32.7668 37.5969 32.5318 37.406 32.5698 37.1189L33.6618 31.9508L33.934 30.6628L38.5699 33.8307L33.0506 37.4475ZM39.6502 32.8657L34.4404 29.3057L49.4776 7.29973L54.6875 10.8598L39.6503 32.8657H39.6502ZM57.7739 6.34312L55.4809 9.69879L50.2711 6.13875L52.5642 2.78309C53.1899 1.86727 54.4444 1.63137 55.3603 2.25715L57.2479 3.54703C57.4665 3.69558 57.6535 3.886 57.7981 4.10728C57.9426 4.32857 58.0419 4.57632 58.0901 4.83621C58.1397 5.09584 58.1373 5.36272 58.083 5.6214C58.0287 5.88009 57.9237 6.12544 57.7739 6.34324V6.34312Z" fill="url(#paint0_linear_266_48)"/>
</g>
<defs>
<linearGradient id="paint0_linear_266_48" x1="30.0004" y1="0.46875" x2="30.0004" y2="59.5603" gradientUnits="userSpaceOnUse">
<stop stop-color="#2BBEDD"/>
<stop offset="1" stop-color="#85D633"/>
</linearGradient>
<clipPath id="clip0_266_48">
<rect width="60" height="60" fill="white"/>
</clipPath>
</defs>
</svg>
